<?xml version="1.0" encoding="UTF-8"?><svg id="Layer_2" xmlns="http://www.w3.org/2000/svg" viewBox="0 0 790.07 828.6"><defs><style>.cls-1{fill:#e0c0d5;}</style></defs><g id="Layer_2-2"><path class="cls-1" d="m366.75,244.23h0c1.76-3.05,2.74-5.32,3.16-7.63-.42,2.32-1.39,4.58-3.16,7.63Z"/><path class="cls-1" d="m541.02,367.51c-.4.42-.71.86-.98,1.34.27-.48.57-.92.98-1.34Z"/><path class="cls-1" d="m249.87,355.08s0,0,0,0c-1.96,5.25-2.81,7.03-5.57,7.75,2.77-.72,3.61-2.5,5.57-7.75Z"/><path class="cls-1" d="m412.26,667.3c-2.51,2.22-3.85,4.11-5.25,6.75,0,0,0,0,0,0,1.4-2.65,2.73-4.53,5.25-6.75Z"/><path class="cls-1" d="m192.1,478.51c-28.76,12.7-50.03,16.46-62.26,16.43,12.23.03,33.5-3.73,62.26-16.43.76.78,1.37,1.72,2.43,1.61-1.07.11-1.67-.83-2.43-1.61Z"/><path class="cls-1" d="m417.07,663.58c1-.71,2.11-1.47,3.36-2.3-1.24.83-2.36,1.6-3.36,2.3Z"/><path class="cls-1" d="m315.58,827.26c1.5.18,2.94.88,4.4,1.34h5.37c3.36-2.36,7.39-1.62,11.07-2.08,10.8-1.35,20.95-4.57,30.75-9.1,3.25-1.5,6.42-3.23,9.78-4.41,3.56-1.25,7.3-1.97,10.96-2.91,3.67-.94,7.51-1.45,10.97-2.88,7.63-3.16,15.69-5.95,21.48-12.13,6.75-7.21,15.48-11.34,23.58-16.45,1.82-1.15,4.14-1.54,6.28-2.1,1.94-.51,3.96-.7,5.92-1.16,4.31-1.01,7.82-3.18,10.21-7.05,1.16-1.88,2.52-3.63,4.06-5.83,4.5,2.93,8.94,5.9,13.46,8.75,5.48,3.46,10.9,7.04,16.56,10.18,11.49,6.37,23.83,6.94,36.48,4.71,2.18-.38,4.35-.83,6.5-1.24,3.4,3.47,6.48,7.02,9.98,10.11,4.18,3.69,8.48,7.34,13.14,10.38,8.93,5.82,18.92,7.89,29.51,6.83,6.16-.62,11.67-3.08,16.61-6.74,5.57-4.13,11.14-8.28,16.49-12.69,4.44-3.66,9.35-6.04,14.95-7.19,2.63-.54,5.21-1.29,7.83-1.89,13-2.99,21.88-10.72,26.67-23.16.24-.63.4-1.29.65-1.91.16-.41.43-.77.9-1.6,4.73-.19,8.96-2.68,13.3-4.93,3.97-2.06,8.03-3.96,11.97-6.07,2.55-1.37,5.28-2.66,7.38-4.58,6.03-5.49,12.7-9.85,20.12-13.17,5.41-2.42,7.3-7.04,7.05-12.58-.15-3.33-.79-6.65-1.4-9.94-1.48-7.95-2.68-15.96-1.28-23.98,1.15-6.59,2.93-13.08,4.65-19.55,3.53-13.23,9.12-25.69,14.38-38.29,8.18-19.61,16.26-39.27,24.02-59.05,3.94-10.03,5.78-20.63,6.29-31.43.37-7.81,1.01-15.6,1.31-23.41.46-11.95-1.39-23.6-5.23-35.02,1.4-3.27,2.76-6.57,4.22-9.83,4.05-9.03,4.04-18.17.83-27.4-.73-2.11-1.51-4.21-2.32-6.3-2.93-7.56-4.52-15.45-5.47-23.44-2.11-17.71-7.95-33.94-18.91-48.09-3.13-4.04-7.04-7.48-10.62-11.15-1.22-1.25-2.55-2.4-3.99-3.75.65-1.21,1.11-2.21,1.7-3.12,5.57-8.69,8.1-18.32,8.94-28.5.62-7.56,1.64-15.1,1.91-22.68.19-5.33-.44-10.7-.93-16.04-.53-5.77-.89-11.61-2.06-17.26-2.71-13.05-8.06-25.12-15.05-36.41-7.21-11.64-12.99-24.01-18.93-36.29-2.21-4.58-3.62-9.66-4.67-14.66-2.95-14.06-9.92-25.8-19.97-35.82-4.75-4.73-9.45-9.61-14.72-13.71-8.79-6.83-18.94-9.94-30.15-8.56-7.76.96-15.56,1.88-23.21,3.43-11.09,2.25-21.22.64-30.92-5.26-6.3-3.83-12.95-7.08-19.59-10.32-11.7-5.71-24.09-6.42-36.73-4.38-4.83.78-9.6,1.94-14.56,2.96-10.42-11.43-23.49-19.28-35.94-27.98-7.33-5.12-14.22-10.86-21.34-16.27-5.16-3.92-10.16-8.12-15.62-11.58-8.83-5.59-15.22-13.04-19.38-22.55-1.43-3.28-3.14-6.44-4.61-9.7-2.53-5.61-7.07-8.51-12.89-9.63-3.72-.71-7.41-1.05-11.29-.33-15.42,2.88-30.7,6.16-45.16,12.47-1.64.72-3.28,1.46-4.83,2.34-10.92,6.12-22.72,7.63-35.03,7.12-9.16-.38-18.35-.36-27.53-.21-7.98.13-15.47,2.47-22.35,6.44-4.84,2.79-9.53,5.86-14.14,9.03-12.6,8.67-20.9,20.68-26.35,34.77-2.12,5.49-1.82,11.42-2.64,17.15-.63,4.42-.83,8.92-1.73,13.28-.63,3.02-1.85,6.01-3.31,8.74-3.49,6.54-7.69,12.59-13.27,17.6-2.12,1.9-3.9,4.17-6.44,6.92-.87.04-2.62.19-4.38.2-8.05.03-16.11.03-24.16.02-1.12,0-2.29.07-3.34-.23-5.78-1.64-11.09-.03-16.26,2.3-5.54,2.49-10.77,5.49-15.01,9.95-4,4.22-7.98,8.47-12,12.68-8.07,8.46-12.35,18.65-12.76,30.21-.31,8.75-1.43,17.35-2.81,25.96-1.09,6.83-1.65,13.76-2.97,20.54-2.26,11.62-5.78,22.92-9.44,34.79-2.8-4.15-3.5-8.34-4.6-12.39-.82-3.01-1.45-6.13-2.71-8.95-2.15-4.82-5.08-5.65-9.72-3.03-1.74.98-3.5,2.1-4.88,3.53-10.69,11.07-19.13,23.48-23.83,38.37-3.77,11.96-7.42,23.94-8.75,36.43-.54,5.06.11,10.25.27,15.37.18,5.8,1.09,11.68.41,17.38-.51,4.27-2.69,8.48-4.72,12.4-1.94,3.75-4.65,7.11-7.01,10.64-4.94,7.39-7.69,15.36-8.52,24.37-1.36,14.75-1.04,29.49-1.01,44.24.01,5.59.16,11.19.3,16.78.13,5.31-1.12,10.22-4.21,14.57-4.92,6.93-9.84,13.85-14.91,20.67-2.56,3.45-4.86,6.95-5.95,11.16-2.11,8.17,1,15.63,8.78,18.79,5.13,2.08,10.74,2.99,16.14,4.41,3.24.85,6.53,1.55,9.72,2.55,5.82,1.82,10.17,5.49,12.99,10.94,1.33,2.59,2.7,5.15,4.06,7.73,3.35,6.33,6.76,12.6,11.54,18.05,2.35,2.67,4.15,5.83,6.13,8.8,3.18,4.78,7.13,8.57,12.67,10.54,3.67,1.3,7.32,1.96,11.17.85,1.48-.42,3.05-.52,4.93-.83.56,3.48,1.29,6.71,1.55,9.97.57,7.09,3.18,13.48,6.53,19.59,7.52,13.73,15.21,27.37,22.77,41.09,1.28,2.33,2.31,4.82,3.3,7.29,2.2,5.56.07,11.01-.62,16.48-.2,1.54-.56,3.09-1.04,4.57-2.68,8.42.49,15.38,6.67,20.41,13.66,11.11,28.4,20.43,46.66,21.85,3.67.28,6.32,1.85,8.41,4.77,5.2,7.28,10.58,14.44,15.66,21.81,10.63,15.43,22.86,29.25,38.68,39.58,3.37,2.2,6.81,4.34,9.99,6.8,10.74,8.27,22.9,13.01,36.26,14.73,7.31.94,14.66,1.58,21.98,2.46ZM89.09,274.04c1.85,6.06,6.1,10.77,11.02,14.03,6.84,4.53,14.39,8.18,22.01,11.28,7.01,2.85,14.54,4.4,21.79,6.67,4.68,1.47,9.45,2.83,13.88,4.89,8.93,4.15,17.67,8.7,26.44,13.17,7.44,3.79,13.76,8.96,19.83,16.69-7.98-2.62-14.69-4.81-21.4-7.04-6.58-2.18-13.09-4.64-19.75-6.53-6.71-1.91-13.19-4.76-20.31-5.36.97,1.02,2.09,1.69,3.28,2.12,10.94,3.94,21.87,7.93,32.86,11.71,7.62,2.62,15.31,5,23.02,7.36,4.03,1.23,7.14,3.33,9.31,7.09,3.58,6.2,7.53,12.19,11.19,18.34.53.9,2.02,1.78.97,3.43-7.45-6.04-15.43-11.09-24.05-14.82-14.78-6.41-29.79-12.26-44.71-18.32-.73-.29-1.56-.33-2.34-.48,1.13,1.66,2.53,2.59,4.05,3.25,11.28,4.91,22.59,9.76,33.89,14.63,10.91,4.71,21.6,9.8,30.92,17.35,5.1,4.13,9.26,9.07,12.49,14.77.45.8.47,1.84.98,3.95-10.86-9.38-22.12-15.77-33.67-21.66-6.97-3.56-13.97-7.14-21.2-10.12-13.02-5.37-26.21-10.33-39.36-15.38-1-.38-2.21-.19-3.32-.27,1.17,1.57,2.53,2.23,3.92,2.82,22.26,9.42,44.53,18.82,65.91,30.13,6.71,3.55,13.12,7.7,19.48,11.85,2.39,1.56,4.38,3.79,6.32,5.92,1.05,1.15.83,2.5-1.17,3.15-10.18-7.01-21.88-10.72-33.77-14.03-18.79-5.23-37.93-8.7-57.15-11.82-6.62-1.07-13.28-1.89-19.92-2.76-.69-.09-1.44.21-2.16.33.7,1.15,1.43,1.47,2.2,1.63,19.5,4.03,38.99,8.06,58.5,12.04,11.85,2.42,23.62,5.2,34.89,9.61,5.59,2.19,10.82,5.28,16.15,8.09.8.42,1.24,1.52,2.57,3.22-2.2-.22-3.28-.15-4.24-.46-2.97-.98-5.91-2.09-8.85-3.17-20.16-7.39-40.92-11.32-62.44-10.68-4.68.14-9.33.91-13.94,2.04,6.22.88,12.42,1.71,18.62,1.72,22.68.06,44.38,4.95,65.53,12.76,1.02.38,2.02.95,2.84,1.66.36.31.35,1.2.28,1.8-.04.34-.51.84-.85.89-1.09.17-2.21.28-3.31.21-6.69-.39-13.38-.91-20.07-1.22-5.36-.25-10.74-.23-16.11-.4-8.26-.26-16.51-.59-24.77-.85-.36-.01-.73.39-1.17.64.96,2.02,2.89,1.89,4.59,1.96,15.19.64,30.38,1.28,45.58,1.78,5.35.18,10.57,1,16.21,1.79-.52,2.54-.95,4.67-1.39,6.84-1.21.51-2.18,1.16-3.23,1.34-6.18,1.02-12.36,2.03-18.56,2.87-14.84,1.99-29.7,3.86-44.55,5.81-1.04.14-2.31.12-2.57,2.14,1.75.04,3.46.19,5.16.09,2.67-.16,5.33-.48,7.99-.74,6.9-.68,13.82-1.17,20.69-2.09,9.75-1.3,19.45-2.96,29.18-4.35,1.89-.27,3.99-1.06,5.83.84v8.09c-7.59,2.67-15.21,4.35-22.87,5.77-7.47,1.38-14.99,2.57-22.52,3.5-7.76.96-15.57,1.46-23.36,2.23-7.65.76-15.41-.55-23.61.84,1.69,2.18,3.52,2.17,5.24,2.23,12.99.51,25.93-.46,38.85-1.69,14.73-1.4,29.18-4.39,43.41-8.44,1.59-.45,3.34-.37,5.19-.55.15,1.64.26,2.74.35,3.84.11,1.29.21,2.59.32,3.98-1.3.58-2.27,1.1-3.31,1.45-24.81,8.35-49.71,16.42-75.45,21.51-1.66.33-3.59.34-4.49,2.34,6.27.62,24.73-2.71,41.91-7.96,13.83-4.23,27.52-8.9,41.27-13.38-.53,1.87-1.48,2.99-2.66,3.76-10.89,7.12-22.37,13.17-34.34,18.25-10.92,4.62-21.88,9.13-33.36,12.25-10.16,2.76-20.37,5.21-30.84,6.45-1.44.17-3.28-.11-3.71,2.04,1.37.14,2.93.22,4.68.23,12.23.03,33.5-3.73,62.26-16.43.76.78,1.37,1.72,2.43,1.61.36-.04.76-.19,1.24-.51,9.18-6,18.45-11.85,27.66-17.78,1.61-1.04,3.12-2.24,4.67-3.36-1.33,2.72-3.1,4.89-4.99,6.94-1.95,2.13-4,4.16-6.04,6.21-1.89,1.9-4.12,3.56-5.67,5.71-2.45,3.4-5.78,5.54-9.24,7.62-12.01,7.2-25.07,11.8-38.51,15.43-8.86,2.39-17.77,4.56-26.63,6.93-1.68.45-3.76.44-5.29,2.95,1.83,0,2.94.15,3.99-.02,17.26-2.84,34.29-6.55,50.51-13.31,12.7-5.29,24.44-12.14,34.33-21.87,1.87-1.83,3.71-3.69,6.15-6.12.27,3.6-1.49,5.49-2.97,7.23-5.08,5.97-10.44,11.66-16.7,16.47-10.22,7.84-21.51,13.72-33.44,18.36-10.84,4.21-21.83,8.03-32.76,12-2.02.73-4.22,1.08-6.51,3.67,2.72-.35,4.46-.41,6.1-.81,10.66-2.6,21.17-5.67,31.3-9.96,1.21-.51,2.52-.78,3.79-1.17-7.49,4.78-15.11,9.02-22.82,13.1-10.13,5.36-19.74,11.34-27.97,19.5-10.5,10.42-19.15,21.88-22.95,36.46-.16.63-.57,1.19-.98,2.02-1.79.55-3.67,1.26-5.6,1.7-7.87,1.79-11.95.1-16.62-6.62-2.81-4.04-5.8-7.96-8.53-12.04-2.98-4.45-5.9-8.96-8.58-13.6-2.13-3.67-3.89-7.56-5.75-11.39-1.5-3.09-3.65-5.52-6.39-7.62-4.16-3.18-8.67-5.54-13.69-6.92-4.53-1.24-9.11-2.29-13.66-3.48-1.95-.51-3.92-1-5.76-1.78-3.12-1.31-3.9-2.86-3.75-6.34.15-3.54,1.88-6.4,3.91-9.1,2.96-3.93,6.34-7.6,8.91-11.77,2.34-3.8,5.61-5.32,9.61-6.51,10.71-3.19,21.34-6.68,31.97-10.12,1.31-.43,2.48-1.29,3.72-1.96-1.82-.8-3.31-.69-4.71-.29-9.69,2.74-19.35,5.56-29.05,8.28-1.12.31-2.37.15-4.11.23.6-1.44.87-2.27,1.26-3.03,3.5-6.86,1.56-5.43,9.62-7.89,7.05-2.16,13.98-4.72,20.92-7.2.77-.28,1.3-1.21,3.06-2.94-3.06.61-4.57.78-6.01,1.21-6.65,1.98-13.27,4.05-19.91,6.03-1.15.34-2.37.42-3.81.66,0-2.78.16-5.02-.03-7.22-.7-8.23-1.84-16.43-2.19-24.66-.57-13.41-.2-26.83,1.27-40.2.15-1.32.58-2.61.95-3.9,2.59-9.12,3.1-9.52,12.4-9.53,9.17-.01,18.35,0,27.52-.06,1.18,0,2.8.37,3.07-2.17-11.96-1.55-24.02-.08-36.78-1,1.75-2.77,3.2-4.96,4.54-7.21,1.17-1.96,2.92-2.65,5.09-2.59,2.91.09,5.81.2,8.72.27,8.27.19,16.53.39,24.8.49.68,0,1.36-.69,3.09-1.63-7-1.7-12.92-2.02-18.84-2.24-6.21-.23-12.42-.29-18.71-.43,1.31-6.08,2.52-11.7,3.84-17.84,1.76-.17,3.7-.46,5.65-.51,4.03-.1,8.06-.03,12.09-.1,1.07-.02,2.29-.03,2.51-1.99-1.2-.28-2.41-.71-3.65-.82-4.89-.42-9.8-.74-14.7-1.07-1.97-.14-3.64-.89-3.93-2.96-.97-7.08-2.29-14.16-1.4-21.35,1.55-12.46,4.43-24.63,8.21-36.58,2.92-9.24,7.11-17.87,13.32-25.41,2.44-2.96,5.33-5.28,9.5-6.79.59,2.21,1.09,4.09,1.59,5.97,1.09,4.1,2.06,8.23,3.29,12.29Zm199.04,282.75c2.96-.74,5.7-.31,8.54.88-26.93,9.14-30.16,10.59-34.47,15.89,1.53-.3,2.6-.36,3.55-.73,3.54-1.39,7-3,10.56-4.31,7.34-2.69,14.67-5.46,22.14-7.74,2.9-.88,6.19-.8,9.28-.63,2.15.12,2.93,1.78,1.83,4.26-8.92,2.84-17.98,5.97-26.4,10.71-13.63,7.66-20.55,12.92-22.91,18.33,16.1-9.84,30.61-21.33,48.76-25.38,3.29,5.53,3.13,6.3-1.51,8.55-.8.39-1.66.68-2.45,1.1-8.14,4.29-16.05,8.91-22.71,15.37-.69.67-1.96,1.35-.82,3.04,10.38-5.46,18.92-14.15,30.03-17.84,2.81,2.07,5.24,3.85,7.97,5.85-5.15,3.85-9.84,7.53-11.66,14.54,3.56-1.46,5-4.07,6.95-5.99,2.89-2.85,5.86-5.52,9.52-7.34,1.92-.95,3.84-1.63,6.31-.68-12.65,10.01-18.47,18.68-17.46,26.95,2.4-2.23,3.19-5.09,4.5-7.57,4.09-7.73,9.92-13.73,17.41-18.19,3.03-1.8,6.06-2.05,9.84-.67-2.65,2.27-5.01,3.96-6.93,6.05-1.95,2.12-3.67,4.52-5.11,7.02-1.35,2.35-3.1,4.78-1.94,8.85,1.17-1.86,1.84-2.94,2.52-4.01,1.67-2.64,3.04-5.57,5.11-7.86,2.52-2.78,5.47-5.27,8.56-7.43,2.46-1.72,3.3-1.36,6.27.52-8.11,8.9-8.23,9.08-9.33,14.89,1.83-1.97,3.11-3.4,4.44-4.78,2.47-2.59,4.87-5.25,7.49-7.68,1.73-1.61,2.37-1.4,4.82.52-10.76,10.86-13.31,14.48-14.19,20.85,1.3-1.49,2.16-2.42,2.97-3.4,2.99-3.61,5.76-7.44,9-10.81,6.3-6.56,6.87-6.55,15.14-3.05.55.23.97.76,1.66,1.33-3.39,5.49-8.69,9.68-10.65,17.15,1.42-1.1,2.16-1.48,2.62-2.07,1.8-2.29,3.44-4.69,5.27-6.96,6.15-7.62,5.56-8.45,15.97-3.24.16.08.21.36.54.96-4.48,5.82-10.6,10.91-11.96,18.94,2.93-3.08,5.35-6.52,7.94-9.83,1.79-2.28,3.7-4.49,5.78-6.5.88-.85,2.38-1.63,3.52-1.52,3.23.31,6.45.99,9.4,3.33-1.66,1.77-3.08,3.17-4.37,4.68-3.34,3.91-6.64,7.85-9.89,11.83-.65.8-1.49,1.79-.39,3.02,7.15-5.35,11.3-13.83,19.06-18.59,2.1.85,4.43.85,5.7,2.96-10.39,9.42-11.45,10.65-12.78,15.24,1.87-1.51,3.23-2.5,4.47-3.61,2.67-2.38,5.31-4.79,7.9-7.24,3.66-3.46,7.64-4.09,12.18-1.49-3.8,3.48-7.59,6.89-11.31,10.4-.7.66-1.71,1.54-.18,3.03,1.7-1.36,3.45-2.7,5.14-4.11,2.4-2.01,4.8-4.02,7.1-6.14,3.47-3.2,7.3-3.41,11.69-1.85q-10.88,10.74-11.91,15.25c3.07-1.14,4.61-3.7,6.68-5.59,2.15-1.96,4.01-4.28,6.34-5.99,2.14-1.58,3.82-4.42,8.2-3.88-3.03,3.16-5.65,5.57-7.88,8.29-2.12,2.58-5.17,4.8-5.21,9.03,4.07-.69,5.22-4.68,8.95-5.95-.65,2.27-1.32,4.12-1.7,6.03-.78,3.92-1.95,7.88-1.94,11.82,0,4.42,1.2,8.83,1.74,13.26.21,1.72.03,3.49.03,6.15-5.74-2.95-9.69-6.56-13.2-10.37-4.38-4.76-9.29-8.25-15.4-10.29-6.86-2.29-13.87-3.55-21.09-3.5-15.88.09-31.77,0-47.64.45-18.92.52-36.88-4.16-54.5-10.02-19.67-6.54-35.85-19.03-51.2-32.6-1.8-1.59-3.61-3.32-3.89-6.28,2.99-2.41,5.96-4.77,8.87-7.18.74-.61,2.06-1.16.73-2.76-3.54,2.2-7.09,4.41-11.1,6.9-2.64-9.07-4.35-17.69-4.78-27.07,2.01,0,3.75-.22,5.41.05,2.42.4,4.8,1.09,7.17,1.76,8.61,2.43,17.12,2.52,25.79-.06,7.06-2.1,14.35-3.45,21.51-5.24Zm-72.8,2.81c1.46.26,2.88.72,4.5,1.14-.01,3.76,1.44,7.21-.85,10.87-5.94,0-11.91.03-17.88-.03-1.07,0-2.13-.35-3.31-.56-.08-.81-.4-1.54-.18-2.01,4.3-9.12,8.06-11.11,17.72-9.4Zm-15.95,14.97c5.99.26,12,.22,18.01.33,1.08.02,2.15.17,3.18.25,2.28,4.25,2.56,8.6,2.91,13.34-12.6,1.16-24.89,2.3-38.28,3.54,1.73-5.51,4.66-9.24,6.61-13.42,1.57-3.38,4.12-4.19,7.58-4.03Zm25.83,18.62c.29.97.6,2.02,1.22,4.11-17,3.61-31.75,11.33-47.11,19.91,1.07-6.13,1.91-11.33,2.9-16.5.33-1.71,1.03-3.35,1.5-4.81,10.78-2.58,34.67-4.13,41.49-2.71Zm165.96,53.2c2.86-.34,5.6-.25,8.16,1.41-2.12,3.21-6.18,3.97-8.17,8.52,1.89-.81,2.86-1.14,3.74-1.62,2.94-1.61,5.77-3.45,8.79-4.89,4.33-2.07,6.83-1.6,11.07,1.75-3.03,1.99-6.05,3.83-8.91,5.89-4.71,3.4-5.32,4.14-7.43,8.07,2.77-1.71,4.79-2.99,6.84-4.22,3.26-1.96,6.44-4.07,9.82-5.78,5.09-2.58,6.15-2.14,9.48,3.03-1.53,1-2.9,1.9-4.15,2.74-1.24.83-2.36,1.6-3.36,2.3-2,1.41-3.55,2.61-4.81,3.72-2.51,2.22-3.85,4.11-5.25,6.75.4.04.91.27,1.18.1,1.51-.96,2.97-1.99,4.41-3.03,3.81-2.75,7.59-5.53,11.39-8.29,3.23-2.34,6.17-2.18,8.94,1.39-8.08,4.76-16.93,8.6-22.97,18.47,2.36-1.04,3.36-1.3,4.17-1.86,3.32-2.28,6.49-4.79,9.87-6.96,3.57-2.29,7.28-4.37,11.03-6.34.96-.51,2.31-.27,4.63-.47-1.44,1.95-2.12,3-2.93,3.95-3.05,3.57-6.15,7.09-9.19,10.67-.66.78-1.57,1.69-.07,2.95,5.75-3.09,8.25-9.84,13.95-13.15,1.24,2.53-.07,4.59-.98,6.5-3.75,7.86-7.72,15.63-11.58,23.44-.54,1.09-.93,2.26-1.92,4.69,3.68-2.48,4.81-5.18,6.39-7.45,1.54-2.19,2.73-4.62,4.21-6.85,1.54-2.32,1.91-5.42,4.91-7.61,1.43,3.68.98,6.95.3,10.15-1.4,6.55-2.99,13.06-4.41,19.6-.35,1.61-.31,3.3-.45,4.95,4.66-6.45,5.15-14.15,7.54-21.69,1.06,3.85,2.35,7.19,2.83,10.64.49,3.52.19,7.15.23,10.73.02,1.79-.03,3.59.11,5.37.09,1.12.48,2.22.82,3.74,2.25-3.12.09-6.68,2.25-9.33.48.44.92.66,1.07,1.01,4.97,11.29,11.4,21.78,17.72,32.34.34.57.31,1.36.64,2.95-5.62-3.46-10.35-6.39-15.1-9.3-6.95-4.27-14.39-7.28-22.55-8.11-8.15-.83-15.4-3.23-22.24-8.22-7.45-5.44-14.58-11.12-20.91-17.77-5.26-5.52-9.75-11.73-12.66-18.78-4.33-10.46-5.22-21.65-5.68-32.84-.07-1.73.28-3.72,1.11-5.2,2.31-4.13,4.82-8.1,10.73-7.41,2.38.28,4.88-.35,7.32-.64Zm238.08-22.49c.58.27,1.08.7,1.85,1.21-6.86,7.61-15.15,13.42-18.31,23.79-5.72-7.95-10.75-15.52-16.38-22.62-5.57-7.03-11.75-13.58-17.66-20.34,2.1.7,3.57,2,5.11,3.23,6.8,5.43,13.6,10.86,20.47,16.2.84.66,1.88,2.15,3.65.24-7.2-6.28-14.35-12.52-21.51-18.76,6.81,3.18,12.98,7.18,19.2,11.09,6.09,3.83,11.82,8.39,19.13,9.91-5.2-5.71-12.63-8.35-19.03-13.79,1.57.13,2.29.01,2.83.26,6.9,3.16,13.77,6.37,20.64,9.58Zm2-2.85c-2.89-.98-5.67-2.29-8.5-3.45,4.99-1.2,9.94-2.17,14.92-.47-2.31,4.58-3,5.07-6.42,3.92Zm31.38-360.75c7.86-.5,15.76.09,23.18,2.72,9.51,3.37,18.51,8.01,26.39,14.4,7.15,5.8,11.77,13.16,13.46,22.51,2.11,11.62.73,22.69-3.56,33.51-4.38,11.06-9.99,21.5-16.22,31.62-8.56,13.91-17.09,27.84-25.64,41.76-.53.87-1.24,1.63-1.87,2.44,2.16-12.34,3.54-24.41-.68-36.41,4.43-3.15,10.35-2.63,14.25-7.93-6.31.5-10.91,3.79-16.66,4.41-1.18-2.69-4.38-4.15-4.63-7.71,3.34-.53,6.43-.99,9.51-1.5q6.29-1.05,8.74-3.35c-.65-.26-1.25-.73-1.83-.71-5.8.23-11.61.44-17.4.85-4.41.31-6.85-2-9.2-5.94,9.83-.97,19.11-.83,28.3-2.99-.83-.85-1.76-1.58-2.69-1.56-7.14.11-14.34-.12-21.41.7-7.83.91-15-.22-22.39-4.24,6.29-2.83,12.21-5.29,18.39-7.15,10.31-3.09,20.89-4.9,31.46-6.78,1.91-.34,3.93-.48,5.54-2.22-4.9-1.22-10.73-1.36-16.05-.42-11.72,2.09-23.11,5.29-33.97,10.24-3.26,1.48-6.55,2.9-9.77,4.45-3.93,1.89-7.63,1.21-11.49-.39.42-.73.55-1.23.88-1.47,14.23-10.26,29.87-17.99,45.71-25.36,2.25-1.05,4.28-.92,6.41.19,1.58.83,3.18,1.69,4.86,2.28,1.8.64,3.5,2.1,5.88,1.13-.18-4.12-4.59-5.1-6.35-8.24,6.64-3.58,13.87-5.33,21.31-10.01-2.91,0-4.44-.35-5.74.06-5.54,1.75-11.09,3.53-16.48,5.69-3.42,1.37-6.59,2.31-10.35,1.29-2.53-.69-5.32-.53-8-.59-3.95-.08-7.9-.02-12.93-.02,4.52-3.65,9.78-3.91,14.15-8.28-7.18.91-12.54,3.03-17.63,5.73-4.6,2.44-9.37,4.09-14.49,5.01-5.28.95-10.48,2.3-15.72,3.44-1.05.23-2.14.29-3.21.43,2.33-2.26,4.82-3.74,7.33-5.16,2.53-1.43,5.13-2.74,7.63-4.24,2.35-1.41,5.35-1.91,7.57-5.19-1.69,0-2.56-.19-3.32.03-3.64,1.05-7.37,1.92-10.84,3.4-7.04,2.99-13.38,7.21-19.35,11.98-1.92,1.53-3.74,3.44-5.94,4.32-4.49,1.79-9.22,3-15,4.81,4.32-3.89,7.72-6.96,12.27-11.07-2.37.29-3.27.17-3.92.52-8.19,4.3-15.57,9.71-21.89,16.47-8.56,9.15-17.15,18.27-25.47,27.63-3.7,4.15-7.02,8.69-10.11,13.33-5.23,7.85-8.78,16.6-12.38,25.25-3.52,8.44-6.32,17.19-9.22,25.88-2.26,6.78-4.22,13.66-6.23,20.52-1.89,6.42-3.81,12.85-5.47,19.33-1.67,6.49-3.11,13.04-4.52,19.59-.7,3.27-1.07,6.6-1.66,9.89-.19,1.05-.61,2.05-1.01,3.35-3.03-4.51-3.39-5.85-3.71-10.68-.61-9.13,1.53-17.72,4.59-26.23,2.57-7.14,4.74-14.42,6.99-21.67.93-2.99,1.56-6.06,2.43-9.07,4.93-17.18,10.01-34.32,14.8-51.55,2.41-8.67,5.78-16.9,9.81-24.92,7.76-15.48,19.01-28.16,31.9-39.42,12.61-11.01,26.35-19.98,43.38-22.85,8.06-1.36,14.27-6.31,19.36-12.46,2.98-3.6,5.63-7.55,7.98-11.6,2.41-4.17,5.71-5.36,10.15-4.36.87.2,1.79.27,2.62.57,6.24,2.26,12.66,2.41,19.21,1.99Zm-144.39-28.11c-2.57-.14-4.4,1.24-6.3,2.21-15.11,7.8-30.12,15.79-45.32,23.43-12.59,6.33-25.35,12.37-39.06,16-5.53,1.46-11.14,2.37-16.97,1.68,8.69-2.79,17.38-5.61,26.09-8.37,8.16-2.58,15.89-6.02,22.73-11.26,3.9-2.99,7.66-6.19,11.72-8.96,7-4.8,11.89-11.15,16.2-18.45,5.44-9.22,11.47-18.22,18.3-26.45,8.09-9.75,19.71-13.6,31.95-15.22,2.22-.29,4.85.72,6.98,1.78,5.07,2.51,9.35,6.15,12.8,10.65,2.72,3.55,5.08,7.37,7.81,10.91,4.23,5.48,8.28,11.17,13.06,16.15,7.45,7.77,14.28,16.03,21.06,24.35,2.81,3.45,5.94,6.69,9.17,9.76,1.93,1.83,4.38,3.09,6.51,4.73,1.93,1.5,2.19,3.35.58,5.22-3.84,4.45-8.12,8.34-14.1,9.76-2.83.67-5.63,1.47-8.46,2.13-.87.2-1.8.14-3.87.28,4.33-3.04,7.64-5.27,10.86-7.65,6.44-4.75,6.82-5.19,8.04-8.24-2.56-.02-4.12,1.78-5.92,2.91-14.07,8.77-28.38,17.03-43.96,22.93-6.52,2.47-13.08,2.57-19.8,2.05-.58-.04-1.12-.6-2.09-1.15,6.67-2.17,13.04-3.95,19.18-6.33,6.24-2.42,12.39-5.17,18.32-8.28,5.77-3.03,11.28-6.62,15.5-11.9-1.62.04-3.05.39-4.35,1.03-5.81,2.89-11.53,5.96-17.37,8.77-12.53,6.03-25.34,11.28-39.16,13.64-6.27,1.07-10.08,1.11-15.17-.12,22.19-5.67,44.92-16.49,51.07-24.82-1.94.71-3.14,1.03-4.23,1.58-7.6,3.81-15.15,7.71-22.77,11.49-9.28,4.61-19.05,7.78-29.31,9.28-3.43.5-7.03,1.08-10.77-1.43,2.03-.54,3.51-1,5.02-1.33,9.19-2.03,18.17-4.74,26.94-8.17,19.96-7.79,38.57-17.81,54.38-32.53.79-.73,1.88-1.36.55-3.02-1.66.96-3.36,1.91-5.04,2.92-10.15,6.12-20.14,12.54-30.49,18.31-17.49,9.77-36.08,16.77-55.73,20.83-2.16.45-4.48.82-6.62.49-3.71-.57-7.32-1.71-10.98-2.62,6.42.03,12.55-1.07,18.54-3.04,18.61-6.11,35.96-14.8,52.22-25.7.76-.51,1.25-1.42,1.87-2.14-1.52-.45-2.58-.28-3.48.19-5.16,2.68-10.3,5.41-15.43,8.15-12.05,6.45-24.37,12.29-37.38,16.57-5.77,1.9-11.62,3.17-19.02,2.04,1.91-.63,2.69-.94,3.49-1.15,16.12-4.31,31.03-11.39,45.46-19.63,9.56-5.45,18.51-11.74,26.72-19.07,1.01-.91,2.38-1.83,1.68-4.21-3.66,2.25-6.89,4.23-10.1,6.22-9.32,5.77-18.48,11.83-28,17.24-13.65,7.77-27.94,14.18-43.44,17.41-8.96,1.87-17.96,3.46-27.61.23,1.43-.65,2.39-1.16,3.4-1.54,15.3-5.78,30.02-12.86,44.55-20.31,9.17-4.7,18.11-9.79,26.33-16.05,1.32-1,3.08-1.73,3.18-4.2Zm-48.49,46.05c.28.04.48.64.72.99-.34.2-.73.63-1.01.57-1.25-.25-2.47-.64-3.7-.99.05-.28.11-.56.16-.83,1.28.07,2.56.09,3.82.26Zm21.76,29.59c-6.66-3.58-13.47-7.24-20.29-10.91,2.18-1.43,5.66.64,8.05-2.8-14.7-2.67-29.09-4.06-43.04-8.04,3.77-.42,7.52-.5,11.26-.39,3.35.1,6.76.09,10.04.67,12.11,2.16,24.19,4.49,36.26,6.88,18.89,3.73,37.82,6.94,57.19,4.88,2.89-.31,5.75-.86,8.63-1.17,1.15-.13,2.34.08,4.55.18-1.63,1.5-2.37,2.29-3.22,2.94-8.91,6.84-17.02,14.52-24.13,23.22-10.31,12.6-18.18,26.59-23.24,42.07-2.71,8.28-5.02,16.69-7.33,25.1-2.31,8.4-4.06,16.96-6.65,25.27-4.58,14.71-7.55,29.93-13.63,44.18-.09.2-.15.42-.2.64-1.08,5.7-2.85,11.38-3.05,17.11-.24,6.94,1.68,13.64,5.08,19.9,2.33,4.3,4.02,8.95,5.89,13.49.33.81.19,1.82.33,3.58-2.15-2.4-3.5-4.18-5.12-5.68-7.29-6.79-12.7-14.92-17.79-23.42-5.05-8.43-10.82-16.43-16.51-24.46-5.43-7.66-11.18-15.1-16.78-22.64-3.73-5.03-7.47-10.06-11.18-15.1-.44-.6-.75-1.31-1.12-1.97,1.57-.07,2.48.43,3.27,1.07,7.14,5.74,14.13,11.68,21.44,17.21,6.44,4.88,13.56,8.69,21.24,11.34.92.32,2.14,1.06,2.8-.98-1.42-.87-2.86-1.85-4.38-2.67-11.66-6.28-22.76-13.42-32.86-22-6.81-5.79-13.45-11.8-19.97-17.92-3.58-3.36-4.54-6.14-4.53-10.8,2.44,1.62,4.68,3.06,6.86,4.57,7.36,5.09,14.69,10.23,22.07,15.3,1.19.82,2.29,2.25,4.2,1.28-1.02-2.5-3.21-3.79-5.15-5.19-9.24-6.7-18.55-13.29-27.84-19.91-1.99-1.41-4.31-2.45-5.2-5.02-1.66-4.79-3.37-9.56-5.5-15.59,2.29,1.2,3.42,1.69,4.45,2.34,5.47,3.49,10.89,7.07,16.38,10.53,9.86,6.22,20.11,11.71,30.84,16.26.77.33,1.79.04,2.7.04-8.03-5.78-16.32-10.57-24.48-15.57-9.73-5.96-19.33-12.13-29.02-18.16-3.96-2.47-5.15-6.25-5.95-11.47,3.98,2.04,7.13,3.61,10.24,5.25,3.37,1.77,6.64,3.72,10.07,5.35,3.09,1.47,5.96,3.67,9.74,3.58-1.06-1.48-2.29-2.71-3.74-3.51-7.66-4.18-15.37-8.26-23.07-12.36-6.96-3.7-8.03-5.05-10.38-13.75,8.1,3.78,16.04,7.35,23.84,11.19,4.82,2.38,10.02,3.75,14.88,5.89,7.14,3.14,13.95,7.08,20.8,10.86,5.88,3.24,11.6,6.76,17.43,10.1.84.48,1.86.64,2.8.95-.55-1.65-1.46-2.56-2.51-3.25-2.99-1.96-6.03-3.86-9.07-5.74-15.74-9.75-31.2-20.02-48.46-27.06-2.07-.84-4.01-1.98-6.02-2.96-5.63-2.74-11.11-5.89-16.95-8.08-4.98-1.87-7.26-5.75-10.66-10.23,1.88.3,2.75.36,3.57.59,17.52,4.83,34.37,11.5,50.94,18.86,11.86,5.26,23.49,11.03,35.26,16.5,1.21.56,2.52,1.97,4.31.31-.7-.73-1.2-1.51-1.91-1.95-5.11-3.22-10.05-6.78-15.43-9.47-25.7-12.84-52.35-23.22-80.47-29.47-5.36-1.19-9.54-4.19-14.44-7.05,5.85-1.69,16.56-2.27,23.22-1.49,17.39,2.04,34.33,5.97,50.95,11.5,12.73,4.23,25.67,7.81,38.54,11.61,1.39.41,2.91.35,4.37.52-.91-1.68-2.07-2.64-3.41-3.12-9.47-3.4-18.93-6.87-28.49-10.01-17.66-5.8-35.48-10.94-54.05-13.05-10.05-1.14-20.05-1.62-30.06.22-.26.05-.61-.36-1.23-.76,3.09-2.24,6.35-3.53,9.96-3.74,9.15-.52,18.3-1.1,27.46-1.33,4.23-.11,8.47.83,12.71.8,13.54-.09,26.68,2.46,39.78,5.52,6.53,1.53,13.13,2.75,19.72,4,1.06.2,2.23-.21,3.35-.34-1.85-1.95-3.77-3.05-5.83-3.64-7.74-2.2-15.45-4.57-23.31-6.24-10.72-2.28-21.57-3.78-32.62-3.55-12.28.26-24.57-.27-36.95.48.8-.35,1.56-.86,2.39-1.04,8.09-1.77,16.15-3.68,24.28-5.18,15.2-2.8,30.26-2.35,45.04,2.66,15.24,5.16,30.52,10.22,45.79,15.29,1.17.39,2.2.17,2.27-1.84Zm38.75,195.05c-9.91,2.9-18.61,8.3-27.99,13.45-.33-1.95-.61-3.23-.74-4.53-.16-1.52-.2-3.06-.29-4.7,5.64-4.12,11.56-7.21,18.12-8.87,6.27-1.59,12.67-2.66,18.97-4.16,6.41-1.52,13.13-.63,20.25-2.4-4.29-1.81-4.29-1.75-11.51-.85-3.76.47-7.58.5-11.34,1.01-3.98.54-7.96,1.24-11.87,2.18-3.69.88-7.34,2.02-10.91,3.3-3.48,1.25-6.85,2.82-10.24,4.24-.28-.63-.48-.87-.42-.99.28-.59.53-1.23.96-1.7,4.13-4.56,9.14-7.85,14.8-10.2,3.51-1.46,7.07-2.81,10.56-4.31.87-.38,1.58-1.15,2.8-2.06-9.02-.86-17.25,2.98-31.07,14.24,0-1.62.09-2.87-.02-4.1-.54-6.11,2.47-9.68,8.05-11.5,5.53-1.8,10.97-3.89,16.58-5.38,7.77-2.08,15.67-3.69,23.5-5.59,2.05-.5,4.02-1.34,6.02-2.03-1.44-1.03-2.69-1.22-3.91-1.11-16.33,1.58-31.8,6.44-47.88,13.24,1.14-5.74,1.85-10.48,3.76-15.08,12.6-5.1,25.65-6.22,38.94-5.55,5.13.26,10.24.78,15.36,1.13.93.06,1.87-.15,4.04-.34-3.74-2.18-6.6-2.41-9.45-2.64-8.24-.65-16.57.79-24.76-.99-6.37,1.05-12.98.59-19.14,3.09-1.17.48-2.5.56-4.63,1.01.65-1.85.72-3.47,1.48-3.92,2.1-1.23,4.43-2.11,6.76-2.88,6.8-2.23,13.64-4.33,20.45-6.52.94-.3,1.8-.86,2.69-1.3-2.18-.85-4.13-.86-5.92-.35-6.44,1.86-12.83,3.91-19.26,5.84-1.37.41-2.81.58-4.35.89.4-7.65,4.02-11.64,11.13-12.39,2.22-.23,4.41-.75,6.63-.87,10.71-.62,21.42-1.14,32.14-1.71,2.41-.13,4.84-.18,6.98-1.79-.51-.43-.8-.89-1.1-.9-6.49-.12-12.98-.46-19.46-.2-10.66.43-21.35.82-32.35,4.53,1.72-4.88,2.24-9.3,4.55-12.86,7.46.28,14.59.7,21.72.77,7.16.07,14.32-.18,21.48-.39,1.55-.05,3.62.64,4.41-1.94-2.23-1.29-4.49-.89-6.68-.9-8.72-.04-17.45.1-26.16-.11-4-.1-7.99-.88-11.98-1.36-1.3-.16-2.07-.88-1.91-2.21.17-1.34,1.15-1.8,2.4-1.72.89.06,1.78.2,2.68.22,6.93.13,13.87.27,20.8.33,1.24.01,2.74.15,3.24-2.05-8.81-2.35-18.18.29-26.89-2.7-.22-2.3-.04-4.19,2.25-5.79,4.72.77,9.74,1.73,14.8,2.38,5.09.66,10.22,1.3,15.34,1.42,4.88.11,9.77,2.18,14.73.09-1.33-.84-2.7-1.39-4.12-1.56-5.77-.66-11.58-1.06-17.33-1.84-5.97-.82-11.92-1.88-17.84-3.05-1.61-.32-3.07-1.39-4.91-2.27,1.07-2.28,1.89-4.02,2.68-5.72,1.11.08,1.8-.02,2.4.18,7.32,2.47,15.05,1.89,22.55,3.01,1.19.18,2.76.32,3.1-1.88-.77-.27-1.54-.72-2.36-.81-4.66-.55-9.36-.84-13.99-1.58-3.05-.49-6.01-1.57-8.99-2.46-.3-.09-.44-.7-.82-1.36.53-.93,1.13-2.01,1.68-2.98,22.34,5.01,36.28,5.76,46.54,2.29-1.3-.67-2.16-1.45-3.06-1.51-3.12-.2-6.26-.17-9.39-.2-8.76-.06-17.42-.92-25.89-3.23-1.85-.5-3.6-1.34-5.4-2.03,3.67-.49,7.11-.09,10.55.3,3.39.39,6.78,1.88,11.67-.25-6.86-2.88-13.28-2.52-19.21-4.88,6.68-1.74,12.98-1.6,19.32-.03,10.77,2.67,21.64,3.13,32.59,1.26.57-.1,1.22.27,1.71.39.24.6.57,1.01.54,1.4-.45,5.78-.97,11.56-1.41,17.35-.35,4.67-.84,9.34-.85,14.01,0,3.55,1.02,7.11.97,10.65-.19,13.44,1.45,26.79,1.84,40.18.32,10.95.38,21.99-.69,32.87-.8,8.1-1.74,15.83,2.58,23.36-1.2-.55-1.94-1.31-2.77-1.96-6.12-4.82-13.07-7.91-20.83-8.36-9.46-.54-18.68.91-27.63,4.32-7.79,2.97-15.05,6.85-22.11,11.2-1.87,1.16-3.93,2.1-6.02,2.79-2.31.76-2.49.49-3.86-3.14,6.16-4.44,14.05-6.19,20.65-12.3-3.68.11-5.8,1.32-7.93,2.32-4.65,2.19-9.24,4.54-13.87,6.76-.54.26-1.25.15-2.18.24-.56-1.42-1.09-2.78-1.71-4.37,2.42-1.49,4.47-2.83,6.59-4.04,10.21-5.83,21.22-9.39,32.67-11.84,5.23-1.12,10.32-2.86,15.44-4.45.85-.26,1.5-1.15,2.68-2.1-6.26-.47-16.79,1.74-30.74,5.82Zm45.12,43.17c-16.86-7.61-34.49-11.91-53.25-16.19,2.8-1.54,4.59-2.42,6.26-3.47,3.08-1.92,6.25-2.14,9.61-.91,3.57,1.3,7.2,2.45,10.75,3.82,10.63,4.13,21.23,8.35,31.86,12.5,2.44.95,4.87,2.16,8.11,1.13-.7-.96-1.04-1.89-1.69-2.26-2.52-1.42-5.04-2.94-7.74-3.91-12.2-4.39-24.47-8.59-36.69-12.92-.86-.31-2.33-.32-2-1.97q3.98-1.38,6.32-.88c1.53.33,3.05.81,4.59.98,9.72,1.07,18.63,4.65,27.31,8.86,5.84,2.83,11.52,5.97,17.34,8.83.9.44,2.1,1.97,3.54-.03-6.12-4.62-12.85-8.12-19.57-11.56-6.66-3.41-13.64-6.22-21.72-9.85,8.82,1.34,16.13,3.09,23.24,5.85,3.24,1.26,5.96,2.94,7.97,5.8,1.86,2.65,4.43,4.44,7.54,5.31,1.24.34,2.77.65,3.89.23,5.84-2.17,10.59-5.7,13.36-11.53,1.87-3.94,1.95-7.74-.31-11.54-1-1.68-1.96-3.38-3.07-5.3,1.06-.31,1.68-.69,2.25-.63,7.21.72,13.65-1.87,20.08-4.54,5.06-2.1,8.41-5.65,9.77-11.12,3.67-14.73,5.51-29.42.55-44.27-.75-2.25-1.06-4.94-.6-7.23,1.1-5.39.69-10.6-.16-15.96-1.98-12.46-9.16-19.68-21.53-20.96-2.29-.24-4.52-.48-7.26-1.75,3.81-.88,6.88-1.5,9.89-2.32.86-.23,1.57-1.04,3.03-2.06-3.83-.86-6.67-.61-9.51.09-2.6.64-5.21,1.34-7.85,1.74-1.48.23-2.55-.57-2.29-2.59,5.71-1.7,12.21-.65,18.69-4.59-2.5-.3-3.79-.63-5.06-.57-2.9.12-5.79.4-8.69.67-1.78.16-3.56.65-5.31.52-.85-.07-2.05-1.08-2.31-1.91-.24-.78.3-2.1.93-2.78.72-.76,1.91-1.09,2.91-1.58,6.29-3.05,13-4.77,19.75-6.41,2.3-.56,4.72-.88,6.69-2.43-.4-.6-.58-1.18-.88-1.26-.84-.21-1.75-.37-2.6-.27-7.15.83-14.06,2.53-20.58,5.71-1.2.59-2.58,2.13-4.46.2.74-2.37,1.71-4.87,2.27-7.45.76-3.48,1.6-7.01,1.68-10.54.13-5.68-3.14-8.17-8.62-7.16-6.94,1.28-10.54,5.08-11.85,12.74-.45,2.61-.57,5.27-.82,7.7-4.48,2.18-4.48,2.21-9.77,1.79,2.76-2.46,6.65-2.84,9.48-6.65-2.39.41-3.72.45-4.91.88-3.36,1.23-6.64,2.66-9.99,3.91-1.24.46-2.57.85-3.87.88-1.34.03-2.95.4-4.4-1.09,5.93-3.19,12.22-4.91,17.05-10.91-5.27.34-8.56,2.79-12.1,4.45-3.79,1.77-7.51,3.7-11.82,5.85.4-1.17.41-1.64.65-1.84,9.38-7.65,18.96-15.03,30.08-20.02,9.69-4.35,19.91-6.83,30.56-6.66,4.66.07,9.32,1.01,13.96,1.69,5.99.87,11.92,1.94,17.26,5.1,2.17,1.28,4.08,2.72,5.27,5,4.69,8.92,6.18,18.17,2.59,27.82-1.72,4.61-3.7,9.12-5.62,13.65-2.44,5.75-2.74,11.77-1.85,17.81,1.4,9.49,3.62,18.89,4.55,28.42.78,7.97.23,16.06.27,24.1-4.8,19.28-12.63,37.23-23.65,53.78-2.73,4.1-5.76,8-8.31,12.21-3.07,5.05-6.88,9.34-11.42,13.07-2.76,2.27-5.35,4.75-8.05,7.1-4.27,3.72-8.85,6.8-14.7,7.51-1.98.24-3.96.85-5.81,1.6-9.08,3.67-18.14,2.29-26.88-.72-8.64-2.98-17.33-6.12-24.45-12.29-1.49-1.29-3.5-1.97-5.2-3.05-2.76-1.75-5.79-3.16-7.87-5.95,3.36,1.11,6.49,2.63,9.62,4.16,6.05,2.96,12.21,5.54,18.99,6.38,2.26.28,4.37.5,6.95-1.69-5.47-1.58-10.36-2.75-15.08-4.42-4.63-1.64-9.23-3.49-13.55-5.8-4.34-2.32-9.54-3.35-13.21-7.67,3.14-2.17,6.12-1.31,8.77-.69,9.14,2.12,18.21,4.55,27.29,6.9,7.36,1.91,14.68,3.91,22.05,5.76,1.02.25,2.22-.19,3.33-.31Zm54.12-5.34c2.16-3.18,4.11-6.41,6.4-9.38,8.97-11.62,15.33-24.66,20.79-38.15,4.17-10.31,7.76-20.79,8.01-31.87-.06-1.68-.11-3.36-.11-5.04.12,1.69.15,3.37.11,5.04.14,3.92.29,7.85-.22,11.68-3.04,22.49-13.05,42.07-26.27,60.17-1.71,2.34-3.74,4.45-5.72,6.56-.64.68-1.21,1.97-2.99,1Zm-17.41-199.6c-.65-.02-1.31.26-1.97.38-4.32.79-8.64,1.58-13.1,2.39.31-.59.44-1.06.73-1.35,10.9-10.69,22.94-19.92,35.99-27.83,1.67-1.01,3.69-1.56,5.62-1.98,8.81-1.92,17.73-1.6,26.96-.19-2.34,1.22-4.67,2.44-7.01,3.66-10.71,5.58-21.28,11.38-31.06,18.55-8.85,6.48-6.13,6.67-16.16,6.38Zm-19.57,3.17c-1.3,1.43-3.16,2.4-4.87,3.39-4.83,2.8-9.77,5.39-14.55,8.27-2.82,1.69-5.42,3.76-8.12,5.66-.2-.16-.39-.32-.59-.49.41-.66.76-1.36,1.23-1.96,9.38-11.96,19.29-23.46,30.54-33.72,1.58-1.44,3.7-2.47,5.75-3.15,5.51-1.83,11.1-3.4,16.69-4.97,1.13-.32,2.39-.18,4.92-.34-1.85,1.56-2.62,2.29-3.47,2.92-9.88,7.34-19.23,15.28-27.54,24.4Zm-31.06.52c6.58-6.35,13.29-12.61,21.85-16.34.77-.34,1.73-.26,2.84-.41-7.59,9.49-14.91,18.46-21.99,27.62-2.15,2.78-3.55,6.12-5.43,9.13-2.98,4.8-6.48,8.95-13.16,9.4-.16-1.18-.37-1.66-.25-2.02,3.49-10.24,8.25-19.77,16.13-27.38Zm-21.84,29.12c-.06.03-.13.02-.22-.01-.26-.09-.61-.39-.9-.53.56-2.17.95-3.48,1.54-4.52.27-.48.57-.92.98-1.34.76-.79,1.84-1.57,3.49-2.72-2.46,3.38-1.29,7.38-4.89,9.12Zm83.66,74.46c.1,3.09.12,6.35-.76,9.26-1.54,5.1-3.62,10.06-5.81,14.93-2.02,4.47-2.75,4.54-8.89,2.4.72-1.1,1.16-2.5,2.08-3.01,1.3-.71,2.97-.72,4.45-1.13.21-.06.26-.71.49-1.39-1.61-.56-3.22-1.11-4.76-1.65-.14-3.66,1.11-5.72,4.92-5.84,2.02-.06,4.07-.62,5.6-2.72-3.44-1.16-6.74.43-9.45-1.2-.79-2.12.07-3.21,1.78-3.82,1.54-.55,3.33-.75,4-3.16h-7.29c-.69-1.39-1.45-2.92-2.1-4.23,3.51-2.03,6.72-3.88,10.72-6.2,3.06,1.5,4.9,4.2,5.03,7.76Zm7.87-3.15c-1.5-.05-2.63-.8-2.65-2.36-.02-1.73,1.43-2.05,2.78-2.19,1.09-.11,2.21-.07,3.31.03.37.03.71.42,1.27.79-.23.97-.48,2.03-.85,3.58-1.68.08-2.77.19-3.86.16Zm-.87,3.6c1.2.21,2.32.41,3.79.67-2.93,8.01-5.65,15.49-8.41,22.96-.3.82-.82,1.58-1.35,2.28-.19.25-.69.26-1.5.53,1.66-4.34,3.52-8.33,4.69-12.51,1.24-4.42,1.84-9.02,2.79-13.93Zm10.38,5.5c.59,1.75,1.18,2.73,1.23,3.74.55,10.86-1.83,21.27-5.16,31.49-.52,1.61-1.62,3.42-2.99,4.29-7.36,4.65-15.24,7.59-24.07,4.95-3.33-1-6.51-2.62-8.18-6.19,3.58-1.31,3.56-1.2,5.88-.62,4.32,1.09,8.65,2.14,13.02,3.02.71.14,1.6-.68,2.57-1.13-2.1-2.41-5.2-1.78-7.75-4.16,5.26-.74,10.1,1.84,14.97-1.98-2.94-.48-5.01-.81-7.31-1.18,8.49-1.13,8.62-1.18,11.07-3.63-1.82-.16-3.39-.29-5.45-.47,6.25-8.59,6.6-19.01,12.16-28.12Zm-31.62,26.43c.06.44.11.88.17,1.32-1.41.69-2.81,1.37-5.26,2.57.88-2.29,1.32-3.43,1.87-4.87,1.26.38,2.24.68,3.22.98Zm-7.51,21.81c1.59,2.16,3.41,4.15,5.11,6.22.99,1.21,2.05,2.37,2.93,3.66,2.24,3.29,2.42,6.74.19,10.05-1.33,1.98-3.05,3.71-5.13,6.19-2.11-3.16-3.37-5.57-5.1-7.57-4.97-5.73-5.96-12.29-4.76-19.49.4-2.41.71-4.87.75-7.31.16-9.85.26-19.7.27-29.55,0-3.13-.29-6.26-.52-9.38-.21-2.89-.55-5.77-.79-8.65-.71-8.91.26-17.87-1.16-26.79-.73-4.58-.54-9.42-.03-14.06,1.21-10.88,2.41-21.75,2.62-32.71.05-2.61.84-5.31,1.83-7.75.73-1.81,2.28-3.42,4.87-2.23.18.61.54,1.24.51,1.86-.05,1.33-.14,2.7-.5,3.97-1.07,3.88-2.17,7.75-3.46,11.56-2.07,6.1-1.49,11.83,1.68,17.44,3.8,6.73,4.56,13.89,2.49,21.35-1.01,3.66-1.97,7.34-3,10.99-1.98,7.04-1.58,13.7,2.94,19.79,1.93,2.61,2.6,5.6,2.48,8.87-.21,5.86-1.28,11.53-3.37,17.01-1.19,3.14-2.43,6.25-3.58,9.41-2.24,6.2-1.11,11.91,2.73,17.12Zm32.76-85.51c2.37,6.33,3.12,12.85,1.73,19.68-3.06.61-5.86,1.27-8.71,1.67-.69.1-1.5-.67-2.58-1.2,2.95-1.71,6.26-.67,8.36-3.08-2.43-2.97-5.35.01-8.18-1.47,1.06-.63,1.97-1.06,2.75-1.66.71-.55,1.27-1.29,2.39-2.46-8.34.08-14.02,5.53-22.33,7.53,5.86-5.08,12.33-6.96,16.74-12.82-4.78.04-7.69,2.66-12.65,4.79,3.33-5.61,6.29-9.68,9.98-13.19.63-.61,1.42-1.09,2.2-1.5,4.45-2.34,8.53-.97,10.28,3.7Zm-26.35,8.77c1.19-6.34,2.2-11.71,3.25-17.33,4.05-.52,7.94-1.02,11.82-1.52-7.43,4.07-9.67,12.09-15.08,18.85Zm55.7,18.93c-1.01-4.6-1.84-9.17-2.69-13.73-.9-4.82-1.67-9.68-2.75-14.46-.86-3.81-1.01-7.53.29-11.22,1.56-4.42,3.13-8.84,4.83-13.21,2.72-6.98,4.68-14.01,2.45-21.54-.11-.37.15-.85.42-2.13,4.7,5.42,6.58,11,6.88,17.18.37,7.68-.69,15.2-3.36,22.39-4.4,11.86-7.67,23.86-6.07,36.72Zm8.19-5.24c3.64,5.37,5.19,11.43,6.5,17.55,3.56,16.6,7.13,33.21,10.53,49.84,2.74,13.37,4.72,26.83,4.74,40.56.01,10.23-1.15,19.95-6.29,29.11-6.18,11.03-14.78,19.62-25.1,26.59-2.75,1.86-5.84,3.45-9.01,4.4-7.72,2.33-15.64,3.69-23.78,3.03-4.45-.36-8.92-.59-13.36-1.06-14.9-1.56-27.95-7.84-39.84-16.49-5.94-4.32-11.15-9.66-16.62-14.62-1.21-1.1-2.1-2.54-3.14-3.82,11.19,6.73,23.08,10.17,35.83,10.61,12.81.44,25.32,2.67,37.79,5.43,4.13.91,8.4,1.22,12.62,1.67.99.11,2.31.19,2.69-1.77-1.4-1.58-3.54-2.18-5.58-2.9-7.85-2.75-15.97-4.27-24.21-5.27-3.54-.43-7.32-.57-10.47-1.99-3.5-1.58-7.07-2.68-10.68-3.83-1.05-.34-2.78-.14-2.88-2.11,3.39-1.25,6.79-2.33,10.04-3.76,2.44-1.07,4.64-1.24,7.04.02,1.57.83,3.32,1.33,4.97,2.01,12.89,5.3,26.28,8.82,40.03,11.02,2.04.33,4.19,1.04,7.23-.69-9.15-2.2-17.42-3.89-25.51-6.23-8.3-2.39-16.47-5.29-24.54-10.08,2.06-1.5,3.66-2.61,5.2-3.8,2.15-1.66,4.34-1.81,6.92-.88,10.16,3.66,20.76,5.41,31.39,7.01,2.16.32,4.39.93,6.96-.46-2.45-1.83-5.1-1.96-7.66-2.37-9.07-1.45-18.03-3.35-26.66-6.6-1.16-.44-2.22-1.13-3.93-2.01,2.75-2.17,4.98-3.92,7.08-5.57,5.4,1.41,10.33,2.9,15.34,3.96,5.13,1.08,10.2,2.92,16.87,2.15-5-3.41-9.88-3.08-14.18-4.5-4.6-1.52-9.56-2.04-14.09-4.78,1.73-3.06,4.13-4.95,6.32-6.72,6.33,1.73,12.34,3.41,18.38,5.01,1.27.34,2.71.58,3.14-1.57-5.47-2.95-12.3-3.01-18.64-8.1,6.52-.22,11.09,3.39,17.77,1.81-5.42-2.15-9.43-3.73-13.26-5.25.04-2.43,1.07-3.54,2.88-3.48,1.77.06,3.53.53,5.29.83,2.35.4,4.72,1.06,7.45-.45-2.88-3.67-8.53-1.7-11.29-6.36,1.64-.1,2.66-.37,3.57-.19,2.62.54,5.19,1.34,7.82,1.87.65.13,1.43-.39,2.8-.81-3.14-3.54-7.55-3.04-10.84-5.84.99-.6,1.9-1.61,2.5-1.45,2.49.67,4.81,2.32,7.77.81-.89-2.82-3.59-2.66-5.3-3.86-.5-.35-.85-.91-1.39-1.5.86-1.37,1.66-2.64,2.43-3.87,2.32.36,4.3.68,6.27.97,1.14.17,2.25.2,2.55-1.52-2.26-1.14-4.55-2.3-7.06-3.57,1.37-2.15,2.85-1.63,4.37-1.29,1.58.36,3.3,1.44,5.13-.75-2.43-1.71-4.68-3.29-6.9-4.85,1.56-5.97,3.07-11.56,4.48-17.18,2.5-9.9,2.78-19.89,1.16-29.95-.67-4.13-.52-8.7.4-12.1Zm-93.37,135.74c4.53,1.02,8.94,2.6,13.4,3.94-11.52,1.33-20.73-.88-25.44-5.6,4.14.55,8.17.79,12.05,1.67Zm-2.79,25.98c-2.23-.58-4.42-1.29-4.6-4.45,1.83,1.77,3.22,3.11,4.6,4.45Zm34.64,62.8c1.14,5.16,2.33,10.22,1.52,15.82-1.66,11.39-7.05,21.13-12.07,31.1-1.8,3.57-4.71,5.01-8.77,4.87-6.07-.2-11.26-2.62-16.27-5.67-10.72-6.53-21.33-13.21-29.68-22.83-.29-.34-.62-.65-.97-.93-13.01-10.71-24.26-23.14-35.4-35.71-6.72-7.58-12.28-15.97-17.42-24.63-6.72-11.32-16.19-19.5-27.65-25.7-6.74-3.65-13.9-6.1-21.06-8.68-7.15-2.57-14.4-5.04-21.15-8.46-12.05-6.11-20.96-15.23-23.89-29.01-.83-3.92-1.51-7.91-1.84-11.91-.68-8.3-2.4-16.34-4.99-24.24-3.3-10.05-8.08-19.45-13.14-28.64-7.48-13.59-13.15-27.91-18.5-42.39-3.59-9.72-5.79-19.69-5.39-30.18.29-7.38.11-14.78.04-22.16-.08-8.75,1.03-17.39,2.06-26.04,1.03-8.65,2.37-17.24,2.34-26.01-.03-6.44-1.39-12.4-4.2-18.12-1.06-2.16-2.09-4.34-3.38-7.04,1.19.33,1.84.36,2.3.66,5.37,3.62,10.82,7.14,16.01,10.99,2.33,1.73,4.06,4.26,4.38,7.31.64,5.99,1.29,11.99,1.64,18,.74,12.63-1.26,24.96-4.55,37.11-.37,1.36-.36,2.83-.53,4.24,5.16-7.67,7.6-16.02,8.74-24.96,1.14-9,.79-17.94.27-27,4.64,6.45,8.16,13.22,9.69,21.08,2.09,10.79.71,21.41-1.12,31.95-1.6,9.23-4.18,18.28-6.3,27.42-.28,1.2-.43,2.44-.65,3.65,5.55-7.36,7.96-15.8,9.73-24.45,1.81-8.87,2.81-17.84,3-26.95,2.49,5.81,4.68,11.62,6.78,17.47.37,1.03.47,2.2.46,3.31-.07,8.26.47,16.54-1.02,24.76-.42,2.34-.68,4.82.59,8.2,2.71-8.99,2.7-17.37,3.89-25.76,6.14,8.8,7.7,18.7,8.36,28.74.87,13.45-.6,26.77-3.18,39.99-1.01,5.18-1.91,10.37-2.9,15.72,2.64-.23,2.65-2,3.15-3.39,7.34-19.93,8.18-40.49,5.68-61.87,6.01,4.9,9.34,10.59,9.4,18.01.02,3.13.04,6.27.18,9.4.05,1.16.44,2.31.68,3.46,1.01-1.77,1.21-3.51,1.28-5.26.08-1.79-.02-3.58.06-5.37.07-1.62-.33-3.36.73-5.4,2.96,3.71,5.27,6.86,5.5,11.19.22,4.22.95,8.42,1.2,12.64.69,11.93-1.37,23.61-3.55,35.26-.93,4.96-1.9,9.92-2.94,15.35.97-.6,1.41-.74,1.63-1.04.4-.53.79-1.12.97-1.75,1.28-4.52,2.59-9.03,3.72-13.58,3.46-13.92,4.03-28.11,3.17-43.92,2.44,2.84,3.78,4.56,5.29,6.12,3.47,3.59,4.67,8.01,4.91,12.82.13,2.68.22,5.37.27,8.05.06,3,.86,5.77,2.3,9.04,1.98-7.1-.59-13.42-.14-21.06,3.73,5.01,7.98,8.52,8.17,13.95.34,9.83.71,19.75-.17,29.51-.95,10.44-3.73,20.65-6.93,30.67-.46,1.44-.77,2.93-1.4,5.38,1.46-.82,1.99-.94,2.19-1.26.59-.94,1.11-1.95,1.56-2.97,5.23-11.79,7.86-24.17,8.48-37.03.28-5.78,1.22-11.53.02-17.31-.16-.77.14-1.64.32-3.38,1.18,1.44,1.92,2.2,2.5,3.07,2.37,3.53,4.4,7.33,7.09,10.59,3.39,4.11,4.54,8.6,3.96,13.72-.18,1.55-.46,3.08-.65,4.63-.45,3.75-.87,7.5-1.27,11.26-.02.15.27.34.73.87.65-.9,1.48-1.62,1.79-2.53,1.63-4.66,2.77-9.42,2.96-14.4.04-1.17-.64-2.66.91-3.51,3.71,2.08,5.47,5.1,4.97,9.39-.18,1.55.06,3.15-.15,4.69-1.53,11.28-2.83,22.6-5.96,33.6-.46,1.61-.38,3.37-.54,5.06,1.68-1.25,2.47-2.76,3.1-4.32.58-1.45,1.02-2.96,1.48-4.45.53-1.71,1.05-3.42,1.54-5.14.43-1.5.85-3.01,1.2-4.54.4-1.74.78-3.49,1.05-5.25.24-1.55.26-3.12.48-4.67.25-1.77.69-3.51.89-5.28.17-1.55.06-3.13.16-4.7.1-1.6-.29-3.35.68-4.96,4.76,3.6,6.37,7.95,5.71,13.26-.36,2.88-.52,5.78-.94,8.64-1.38,9.55-4.02,18.78-7.05,27.91-.53,1.58-.76,3.27-1.13,4.9,8.54-12.87,11.35-27.35,12.78-43.01,3.13,3.29,6.45,5.77,6.75,10.12.49,7.14,1.06,14.34-.66,21.38-2.11,8.68-4.51,17.29-6.73,25.94-.4,1.57-.52,3.22-.77,4.84,3.42-3.15,4.55-7.24,5.95-11.14,1.51-4.2,2.79-8.51,3.77-12.86.94-4.13,1.62-8.35,1.96-12.56.35-4.37.16-8.78.21-13.91,3.01,2.02,4.19,4.27,4.91,6.87,1.31,4.75,2.42,9.49,2.25,14.5-.18,4.98-.15,9.99,1.19,14.89,1.06-8.83,1.38-17.64.08-26.66,2.83.37,3.86,2.31,4.95,4.29,4.15,7.59,6.48,15.85,7.01,24.32.77,12.25,1.08,24.58-.73,36.83-.35,2.35-.79,4.84.5,7.92,2.46-4.81,2.51-9.53,3.18-14,.69-4.62.61-9.36.71-14.06.1-4.48.29-8.98-.07-13.43-.39-4.66-1.4-9.26-2.12-13.89-.69-4.42-3.65-8.27-3.85-14.05,1.79,1.66,3.19,2.35,3.57,3.41,1.72,4.82,3.36,9.69,4.63,14.65.96,3.74,1.31,7.63,2.17,12.88,2.3-9.33-.12-16.67-3.04-24.61,6.9,4,10.88,9.26,13.46,15.62,3.47,8.56,5.39,17.51,6.08,26.7.57,7.57.83,15.16,1.29,22.73.05.86.52,1.69,1.18,3.74,4.1-17.1.89-32.43-2.96-48.69,4.9,5,6.81,9.85,7.51,15.69.72,6.03.78,12.02.93,18.05.06,2.37-.43,4.85.91,7.22.4-.56.86-.91.87-1.26.17-5.75,2.28-11.42.49-17.26-.46-1.49-.05-3.24-.04-5.27,5.26,4.97,7.33,10.75,8.95,16.89,2.9,11,2.9,22.08,1.51,33.25-.25,2.04-.99,4.14.77,6.98,4.49-14.61,4.27-28.39.2-43.44,1.71,1.54,2.35,2.12,2.98,2.7,7.97,7.31,14.11,16.15,20.72,24.62,5.63,7.21,9.58,15.11,11.53,23.96Zm-390.52-107.46c-3.32-.38-6.38-.73-10.49-1.21,1.74-2,2.97-3.03,3.7-4.33,3.38-6,7.91-6.28,14.04-4.14,10.28,3.59,20.86,6.38,31.89,6.69.61.02,1.19.7,2.69,1.63-2.68.31-4.2.54-5.74.65-6.99.49-13.73-.84-20.38-2.89-5.94-1.83-11.47-1.51-15.72,3.6Zm.28-14.88c2.39-3.16,4.48-5.92,6.54-8.64,1.61.32,2.74.38,3.76.76,9.43,3.51,18.74,7.36,28.62,9.57,3.48.78,5.57,3.24,7.89,6.86-16.4-.7-31.48-3.23-46.81-8.55Zm9.51-11.68c.92-3.53,3.14-5.35,5.68-7.92,5.08,2.06,9.72,4.11,14.49,5.82,2.79,1,4.39,2.79,5.26,5.47.4,1.23.82,2.46,1.65,4.92-10.03-1.62-18.4-5.19-27.07-8.28Zm7.51-10.47c1.35-2.58,2.3-4.32,3.18-6.09.89-1.82,1.71-3.68,2.77-5.99,2.72,4.68,5.14,8.67,7.37,12.76.65,1.19.73,2.69,1.34,5.12-5.32-2.11-9.6-3.8-14.66-5.81Zm14.39-14.59c-3.38-6.33-6.29-12.87-7.68-19.95-1.84-9.44-2.99-18.94-2.77-28.62.15-6.67-.35-13.36-.57-20.32,7.8-6.08,19.33-9.77,26.12-8.15.72,2.09,1.33,4.19-.44,6.24-1.76.29-3.55.46-5.26.94-.8.23-1.42,1.06-3.25,2.52,3.85.11,6.27.15,8.68.25,1.93.09,2.79,1.1,2.45,3.09-2.83,2.5-7.52.91-10.47,4.9h12.29c1.83,3.56,4.34,6.44,4.21,10.71-6.03,1.75-12.59.56-18.88,4.76,4.39.74,7.63.32,10.88-.07,2.66-.32,5.33-.71,8-.76,3.27-.07,3.84.68,4.51,4.98-2.88.81-6.26.01-9.4,2.84,4.46.3,8.32.57,12.3.84,1.36,2.06,3.11,3.78,3.33,6.66-7.68.81-15.25.53-22.17,3.96,8.29,1.58,16.47-1.45,25.17.29,1.2,2.31,2.51,4.8,3.94,7.54-15.22.16-18.01.49-21.54,2.81,1.94.33,3.36.77,4.78.79,5.15.1,10.3-.05,15.44.15,1.43.05,3.26.57,4.14,1.56,1.69,1.91,3.24,4.14,3.36,7.4-8.18-.63-16.13-2.11-24.08,1.11,3.14,1.84,3.14,1.81,5.7,1.91,5.58.23,11.21.16,16.74.82,5.91.71,7.19,2.48,8.38,9.51-6.03-.46-12.07-.48-17.93-1.49-6.16-1.06-12.01.43-17.98.93-.75.06-1.42,1.04-3.04,2.31,2.96.18,4.71.42,6.46.38,8.73-.24,17.42.37,26.11,1.18,10,.94,10.01.85,12.25,10.65.08.34-.3.78-.55,1.37-5.73.3-11.43-3.06-18.13-.82,6.27,3.62,13.39,2.33,19.03,6.19-.16,2.27-.3,4.44-.49,7.1-2.35-.66-4.23-1.29-6.16-1.7-3.7-.8-7.41-1.58-11.16-2.16-.84-.13-1.81.63-3.25,1.18,3.64,2.9,7.35,3.81,10.89,5.09,2.31.84,4.7,1.48,6.95,2.44,1.91.82,1.94,1.75.62,4.83-.66,0-1.34.1-1.99-.02-8.57-1.58-17.09-3.6-25.9-1.26-1.52.4-3.55-.29-5.09-1.03-3.24-1.55-5.92-3.85-8.22-6.73-3.47-4.33-5.21-9.28-6.57-14.53-1.01-3.87-2.2-7.74-3.8-11.39-1.7-3.88-3.99-7.5-5.99-11.25Zm-2.47-108.59c7,.33,12.81-2.88,19.69-2.18-.72,3.02-1.33,5.53-1.75,7.32-3.13,2.38-6.89,1.38-9.24,4.4,2.81,1.8,5.62.52,8.95,1.53.09,1.16.18,2.2.24,3.02-1.7,2.14-5.38.2-6.12,3.88,1.98.41,3.89.81,5.71,1.19v7.02c-3.29.75-6.35,1.34-9.34,2.16-3.01.82-6.07,1.63-8.92,2.88-2.78,1.22-5.32,3-8.39,4.78.44-4.42.8-8.39,1.25-12.35.53-4.66.9-9.35,1.74-13.96,2.25-12.41,6.32-24.26,12.27-35.36,4.76-8.87,9.94-17.52,15.06-26.19,1.24-2.1,2.88-3.98,4.53-5.79.69-.76,1.99-1.66,2.82-1.5,3.15.59,6.57.52,9.62,2.77-1.81,2.91-3.46,5.54-5.01,8.02-4.75,1.07-9.55.64-14.28,3.58,4.05,1.87,7.77-1.27,11.05,1.33-.51,3.06-1.83,5.31-5.45,5.43-.89.03-1.82.1-2.63.42-.45.18-.69.9-1.27,1.71,1.96.56,3.59,1.02,5.62,1.59-.79,1.9-1.44,3.47-1.99,4.77-3.05,1.02-6.25.05-8.89,2.71,2.39,1.03,4.36,1.86,6.31,2.73.17.07.24.37.67,1.09-.2,1.2-.48,2.86-.79,4.69-2.75.53-5.15.99-7.55,1.47-1.05.21-2.29.27-2.17,1.88,2.5,2.2,6.32-.41,8.65,2.29q-.99,5.78-5.64,6.59c-4.41.77-8.88,1.38-12.76,3.85-.6.38-1,1.1-1.98,2.23Zm-5.24-29.31c-2.34,5.57-4.47,10.63-7.08,16.84-3.33-6.21-6.24-11.12-8.53-16.97,5.43-.06,10.3-1.1,15.61.14Zm-62.45-219.94c10.25-.66,20.5-1.43,30.75-2.13.63-.04,1.27.25,2.36.49,1.07,10.73,2.15,21.51,3.22,32.19-2.88.92-4.38-2.83-7.59-1.03,2.29,2.27,4.25,4.38,6.38,6.3,3.09,2.78,4.07,6.13,3.43,10.54-4.65-1.44-7.72-5.81-14.19-5.72,4.88,3.99,8.65,7.08,12.44,10.15,1.75,1.42,3.56,2.84,4.02,5.19.71,3.65,1.27,7.33,2.01,11.72-7.06-4.61-12.53-10.2-19.86-12.96.62,1.51,1.42,2.8,2.53,3.72,4.63,3.87,9.17,7.9,14.11,11.34,3.22,2.24,4.85,5.03,5.64,8.64.43,1.96,1.06,3.88,1.44,5.86.15.78-.14,1.65-.3,3.12-9.4-3.75-17.04-10.41-26.99-11.76,1.23,1.61,2.62,3,4.27,3.92,6.83,3.83,13.54,7.94,20.66,11.13,7.22,3.23,9.01,9.62,12.16,16.98-12.84-5.66-23.77-12.59-37.32-16.1,2.04,2.9,4.22,3.56,6.14,4.53,8.2,4.12,16.51,8.02,24.62,12.3,10.45,5.51,10.87,3.97,16.11,13.36.86,1.54,2.31,2.73,3.39,4.15.47.62.69,1.44,1.4,3-2.27-.71-3.71-1.12-5.11-1.61-4.43-1.57-8.76-3.45-13.28-4.7-8.83-2.46-17.74-4.59-26.63-6.82-1.38-.35-2.82-.48-4.54.97,1.66.73,2.61,1.27,3.64,1.58,5.14,1.55,10.3,3.01,15.45,4.55,18.64,5.58,37.29,11.15,54.8,19.88.97.48,1.84,1.16,3.77,2.4-2.24-.2-3.13-.2-3.99-.36-17.13-3.29-34.2-6.94-51.39-9.8-12.77-2.12-25.71-3.34-38.59-4.76-7.99-.88-16.01-1.4-24.03-2.05-1.07-.09-2.3-.18-2.44,1.43.34.32.62.81.97.87,6.17,1.04,12.33,2.21,18.53,3,11.97,1.54,24,2.65,35.95,4.31,27.48,3.84,54.65,9.39,81.85,14.78,1.42.28,2.74,1.01,5.19,1.95-2.25,1.17-3.47,2.24-4.81,2.4-2.65.31-5.38.35-8.04.08-10.01-1.01-19.98-2.27-29.99-3.27-8.67-.86-17.33-2.04-26.09-1.59-.95.05-2.3-.36-2.53,1.57.75.35,1.48.88,2.29,1.03,16.52,3.01,33.15,5,49.93,5.7,2.8.12,5.58.72,9.42,1.24-2.51,2.19-4.07,3.75-5.83,5.02-.83.6-2.06.96-3.09.92-6.02-.21-12.04-.55-18.06-.9-7.81-.45-15.61-.99-23.42-1.43-2.58-.15-5.2-.45-8.55.85,2.73,1.34,4.81,1.85,7.02,1.99,8.7.55,17.39,1.23,26.09,1.64,4.42.21,8.76.68,13.44,1.65-.97,2.69-3.17,3.53-4.76,4.97-3.54,3.2-7.49,4.32-12.32,3.81-4.87-.52-9.84-.23-14.76-.17-1.08.01-2.53-.39-3.37,1.13,5.96,3.17,12.89.99,19.53,4.44-4.24,1.83-7.8.95-11.2,1.01-7.19.14-7.19.04-10.24,1.72,5.56,2.63,11.69-.06,17.49,2.7-1.43,2.26-2.69,4.26-3.76,5.94-6.53,1.32-12.91-.19-18.99,2.81,4.78,3.1,10.2.94,16.09,3.01-7.72,2.96-15.28.12-22.49,4.48,1.71.56,3.37.75,4.98.75,4.83.01,9.26-1.66,13.54-.07,0,0,0,0,0,0,0,0,0,0,0,0-1.96,5.25-2.81,7.03-5.57,7.75-1.26.33-2.91.44-5.25.55-3.78.19-7.56.66-12.31,1.1-1.24-2.03-2.6-4.06-3.76-6.19-4.49-8.25-9.35-16.24-15.15-23.66-4.88-6.24-10.52-11.62-17.44-15.52-9.55-5.39-19.22-10.56-28.77-15.95-7.12-4.02-15-5.78-22.72-8.04-9.5-2.78-18.59-6.46-26.94-11.83-7.79-5.01-7.82-5.07-4.57-14.01,5.96-16.39,11.99-32.73,14.9-50.05,1.66-9.91,3.97-19.69,4.67-29.76.45-6.37,2.8-12.21,6.61-17.34,5.23-7.02,11.15-13.49,17.99-18.92,6.45-5.12,13.66-8.48,22.41-6.27,2.32.59,4.91.33,7.35.18Zm103.52,188.17c-1.67-.17-3.33-.31-5.47-.5,9.96-9.19,19.41-17.91,28.94-26.71,2.22,4.55,2.36,5.85-.38,8.7-4.28,4.45-8.38,9.31-15.81,9.97,1.11,1.33,1.76,2.1,2.63,3.15-1.58,2-3.2,4.06-4.71,5.98-2.11-.23-3.66-.42-5.21-.58Zm-58.64-195.98c1.81.79,3.27,1.28,4.57,2.02,5.25,2.99,10.45,6.07,15.69,9.08,8.04,4.63,16.67,7.76,25.78,9.23,9.48,1.53,19.04,2.55,28.59,3.62,2.65.3,5.41.31,8.04-.06,9.84-1.4,19.61-.72,29.39.51,4.61.58,8.71,2.3,11.97,5.54,9.37,9.3,16.28,20.16,19.86,32.94,1.39,4.96,2.8,10,1.72,15.8-5.89-18.88-17.62-34.02-28.98-38.72.61,1.14.87,1.94,1.37,2.52,2.49,2.88,5.09,5.65,7.55,8.54,9.48,11.13,16.04,23.6,18.01,38.3.44,3.27.57,5.64.14,7.95-.42,2.32-1.39,4.58-3.16,7.63h0s0,0,0,0c-1.25-2.6-2.42-5.25-3.64-7.87-1.22-2.62-2.49-5.21-3.94-7.7-2.92-5.02-5.89-10.17-11.91-14.74.72,2.21.86,3.03,1.24,3.73,2.8,5.1,5.88,10.06,8.43,15.27,2.45,5.01,4.6,10.19,6.46,15.45,1.29,3.62,1.24,7.37-2.15,10.89-5-12.38-11.76-23.09-20.19-32.75-9.72-11.14-22.5-21.02-29.67-22.92-.06.19-.23.49-.16.56,1.05,1.11,2.03,2.31,3.21,3.28,10.55,8.71,20.67,17.85,29,28.78,5.71,7.5,10.92,15.33,14.12,24.27.72,2.02,1.3,4.53.74,6.47-1.14,4-3.14,7.73-6.04,11.75-3.22-5.77-4.86-11.61-8.96-16.1-.18,1.14-.06,2.16.3,3.1,1.51,3.97,3.19,7.88,4.62,11.88.59,1.64,1.32,3.62.9,5.14-.88,3.13-2.22,6.22-5.19,8.97-3.93-8.72-8.06-16.83-14.03-23.8-5.85-6.83-12.34-12.93-19.91-17.89-11.59-7.6-19.3-11.17-25.13-10.94,1.57,1.3,2.62,2.37,3.86,3.16,4.71,3.02,9.44,6.01,14.24,8.89,7.92,4.75,15.15,10.34,21.43,17.13,7.53,8.15,13.39,17.3,16.96,27.88.92,2.72.99,5.01-1.45,7.53-6.25-7.76-12.51-15.18-21.27-19.94.03.96.29,1.76.8,2.32,4.34,4.82,8.6,9.73,13.15,14.34,3.71,3.75,5.81,7.84,4.63,13.24-2.4,2.08-6.81,2.57-6.34,7.25.77.15,1.26.43,1.58.29,7.54-3.21,8.45-2.5,11.79,5.47.14.34-.07.82-.15,1.52-4.57,1.75-8.58,4.5-10.98,9.09-.42.8-.38,1.84-.62,3.11,5.57-1.91,8.13-8,14.51-7.98,1.81,4.26.48,7.66-2.38,10.44-2.88,2.8-5.9,5.57-9.27,7.72-8.29,5.29-16.81,10.22-25.24,15.3-1.44.87-2.86,1.77-4.29,2.66,1.51.87,2.77,1.02,3.85.63,11.22-4.04,21.86-9.19,31.11-16.88,2.51-2.08,5.08-4.09,8.43-6.78-.53,4.59-1.22,8.1-1.28,11.61-.08,4.47-1.44,8.36-4.22,11.75-4.11,5.01-8.2,10.06-12.55,14.86-3.75,4.14-7.88,7.95-11.79,11.95-.68.7-1.77,1.51-.18,2.87,10.45-6.58,18.95-15.28,26.54-25.71-.21,2.89-.69,5.1-.47,7.25.62,6.07-1.89,10.91-5.6,15.28-5.94,6.98-11.99,13.86-17.98,20.8-.93,1.07-2.5,1.89-1.79,4.34,10.21-4.93,16.39-13.66,23.62-22.53.75,4.21.27,7.51.46,10.76.18,3.09-.79,5.73-2.85,7.97-3.94,4.27-7.77,8.67-11.93,12.71-4.49,4.36-9.33,8.36-13.96,12.57-1.01.92-2.62,1.77-1.42,4.11,4.1-1.73,7.58-4.14,10.89-6.73,3.51-2.76,6.85-5.74,10.23-8.67,3.06-2.66,5.23-6.26,8.88-9.17.62,4.46,1.06,8.23,1.69,11.96.32,1.92-.09,3.52-1.19,5.05-.92,1.27-1.66,2.7-2.72,3.82-5.55,5.83-11.17,11.57-16.77,17.35-1,1.03-1.95,2.1-2.97,3.19.59.42.8.68.92.64.84-.26,1.73-.46,2.47-.9,7.14-4.34,13.46-9.6,18.33-16.5.95-1.35,2.21-2.49,3.46-3.86,4.71,9.16,4.41,14.1-.84,24.7-1.09,2.19-2.58,4.19-3.91,6.26-1.69,2.64-3.48,5.22-5.08,7.91-.46.76-.43,1.81-.78,3.43,3.63-1.92,5.65-4.38,7.66-6.7,2.17-2.51,3.84-5.46,5.72-8.22,1.67-2.45,2.01-5.65,4.33-8.55,1.84,4.44,3.32,8.17,4.94,11.84.87,1.97.8,3.81.2,5.85-1.67,5.73-5.01,10.46-8.7,14.99-3.53,4.34-7.15,8.61-10.63,12.98-.54.68-.55,1.79-1.11,3.79,11.78-7.38,18.78-17.14,23.93-29.11.92,1.54,1.37,2.55,2.04,3.39,5.04,6.33,2.95,12.02-1.51,17.52-.42.52-.81,1.08-1.27,1.56-4.06,4.14-8.17,8.25-12.2,12.41-.81.84-2.44,1.51-.83,3.68,9.6-5.4,16.86-12.89,21.58-23.69,1.4,2.58,2.47,4.73,3.7,6.79,3.53,5.93,2.27,10.29-1.93,14.58-3.59,3.67-7.59,6.93-11.42,10.36-1.57,1.41-3.19,2.77-5.43,4.71,8.01-1.14,16.18-7.76,23.73-18.73,1.15,2.37,2.43,4.34,1.82,7-.65,2.82-1.3,5.65-1.65,8.52-.61,4.88-2.79,8.91-6.09,12.43-2.45,2.61-4.93,5.19-7.32,7.86-.66.74-1.74,1.56-.53,3.08,5.38-2.56,9.06-7.01,12.65-11.5,3.98-4.98,4.44-10.95,4.15-17.26.62.52,1.17.74,1.23,1.06,1.18,6.13,2.38,12.25,3.41,18.4.63,3.74-.54,7.08-2.93,10-1.84,2.25-3.74,4.45-5.55,6.73-.66.82-1.55,1.73-.13,3.08,3.91-2.04,6.21-6.06,10.02-9,.71,2.25,1.11,4.23,1.95,5.99,2.29,4.81,2.12,9.38-.4,14.08-1.15,2.14-1.75,4.59-2.48,6.94-.24.77-.12,1.64-.21,3.38,4.49-3.81,4.98-9.05,7.78-12.8.62.44,1.05.61,1.31.94,7.85,9.9,17.75,16.94,29.59,21.28,6.72,2.46,13.48,4.82,20.21,7.27,1.33.49,2.58,1.19,5.26,2.45-4.43.37-7.32.92-10.18.8-10.32-.45-20.48-1.68-29.98-6.29-2.99-1.45-6.35-2.14-9.52-3.24-4.23-1.47-8.46-2.93-12.64-4.51-10.04-3.8-20.11-7.54-30.06-11.56-8.87-3.59-18.01-5.2-27.55-4.82-2.87.11-5.74-.06-9.38-.12-.58-6.69-1.09-12.44-1.57-18.2-.06-.66.02-1.34.07-2.01.42-5.79.82-11.58,1.28-17.36.85-10.59-1.66-20.41-6.6-29.71-9.44-17.79-18.78-35.62-28.33-53.36-6.39-11.87-10.03-24.36-9.4-37.91.23-4.9.75-9.8,1.31-14.67,1.04-9.09,1.84-18.25,4.56-27.05,5.69-18.39,16-33.87,30.04-46.94,1.8-1.68,3.6-3.35,5.36-5.07,2.02-1.97,2.85-4.39,3.04-7.22.66-9.96-3.34-17.43-12-22.23-3.9-2.16-8.11-3.77-12.2-5.58-7.97-3.54-15.98-7-23.93-10.59-7.75-3.49-13.87-8.97-18.73-15.87-10.17-14.44-17.57-30.09-20.64-47.62-2.93-16.72-6.98-33.25-8.39-50.21-.54-6.45-.8-12.92-1.01-19.39-.04-1.15.8-2.33,1.38-3.87Zm15.68-12.4c10.62-10.65,22.49-18.86,37.86-21.43,7.68-1.29,14.65-.59,21.43,2.97,13,6.84,25.09,15.03,33.29,27.46,4.71,7.14,10.42,12.69,17.72,16.82l.05-.06s.04.06.06.08c5.94.8,11.09,3.36,14.93,7.89,4.46,5.25,8.66,10.75,12.65,16.38,6.09,8.59,5.03,18.02,2.52,27.56-2.38-9.73-2.58-20.04-8.2-30.12-.83,5.6,1.81,9.58,1.78,14.47-4-6.68-7.46-12.91-11.36-18.86-3.88-5.92-8.19-11.56-12.32-17.32-.03,0-.05-.01-.08-.01-.18.77-.66,1.66-.41,2.24.62,1.47,1.6,2.79,2.91,4.95-4.1-1.68-7.1-3.2-10.27-4.13-2.71-.79-4.76-2.26-6.74-4.14-3.08-2.91-6.32-5.67-9.58-8.39-.72-.6-1.66-1.73-3-.28,2.35,3.68,6.45,5.99,8.82,10.18-3.93.97-6.9.79-9.34-2.38-2.18-2.83-4.57-5.53-7.14-8-4.51-4.33-9.21-8.47-13.88-12.63-.38-.34-1.13-.28-2.55-.58,5.76,9.34,14.51,15.15,20.56,23.89-1.63.1-2.72.11-3.79.25-4.37.6-7.66-1.01-10.6-4.3-3.12-3.49-6.7-6.58-10.17-9.74-1.88-1.71-3.8-3.48-7.62-4.8,5.2,7.75,12.13,12.02,17.58,18.32-4.77.98-8.34.63-11.46-2.82-2.69-2.97-5.86-5.51-8.87-8.18-4.19-3.7-8.41-7.37-12.67-10.98-.71-.6-1.64-1.69-3.05.03,3.45,3.71,7.22,7.17,10.83,10.78,3.72,3.72,8.3,6.59,12.1,11.69-2.03-.31-3.08-.6-4.14-.6-4.59-.02-7.66-2.2-10.7-5.68-4.69-5.36-10.22-9.98-15.47-14.85-.68-.63-1.77-.8-2.67-1.19.49,2.11,1.52,3.46,2.65,4.7,3.63,3.96,7.32,7.85,10.93,11.83.62.69.95,1.64,1.65,2.87-5.04.4-8.43-1.4-11.45-4.32-3.86-3.73-7.79-7.37-11.73-11.01-.6-.56-1.38-1.26-2.62.03,1.06,1.49,2.14,3.08,3.3,4.6,1.17,1.55,2.43,3.03,3.98,4.95-6.24-1.65-16.62-7.44-21.42-11.83,1.53-2.41,3.71-4.31,5.72-6.33Zm255.74-16.97c-8.03,3.92-15.94,8.2-23.5,12.95-7.33,4.6-14.16,10-22.43,15.93,3.43-7.16,5.66-13.3,7.17-19.74-1.19.98-2.13,2.11-2.69,3.39-2.24,5.12-4.4,10.28-6.53,15.45-2.58,6.25-7.58,10.12-13.2,13.54.06-1.41.54-2.55,1.01-3.7,4.06-9.94,8.15-19.86,12.14-29.83.38-.95.2-2.13.28-3.21-1.47.97-2.15,2.09-2.67,3.28-4.33,9.82-8.73,19.62-12.92,29.5-3.96,9.34-8.65,18.16-17.05,24.87.84-1.76,1.7-3.52,2.52-5.29,6.75-14.64,12.96-29.49,17.74-44.9.34-1.09.29-2.3.42-3.45-1.95,1.64-2.99,3.55-3.82,5.55-4.08,9.93-8.11,19.89-12.16,29.83-4.81,11.84-10.52,23.23-17.06,34.21-.46.77-1.24,1.35-1.88,2.02-.42-1.28-.25-2.12.06-2.91,10.13-25.65,18.06-51.94,22.93-79.11,2.53-14.12,3.95-28.34,3.2-42.72-.06-1.09-.47-2.16-.97-4.28-.68,1.76-1.04,2.32-1.12,2.92-1.29,9.28-2.49,18.57-3.84,27.85-1.49,10.16-2.74,20.38-4.76,30.43-5.02,25.07-12.95,49.28-22.38,73.02-.71,1.79-1.65,3.49-2.87,6.05.46-8.59,2.37-15.87,4.44-23.18,2.93-10.32,5.1-20.84,6.03-31.57.52-6.01.64-12.07,1.54-18.01,1.55-10.27.56-20.55.72-30.82.02-1.09-.24-2.26-2.12-2.28-.23.97-.66,1.99-.7,3.02-.26,7.37-.83,14.72-1.2,22.07-.6,11.84-1.46,23.64-3.19,35.35-1.26,8.58-3.26,17.06-5.04,26.16-4.16-6.28-5.57-12.39-5.14-19.1.8-12.54-.88-25.01-1.37-37.51-.2-5.12-.87-10.24-1.46-15.34-.09-.8-.9-1.52-1.72-2.84,0,4.82-.04,8.76,0,12.71.07,5.37-.33,10.82.42,16.1,1.27,8.92.9,17.85,1.11,26.78.02.91.55,2.28-.66,2.53-4.5-5.01-8.76-9.86-13.16-14.59-1.34-1.44-1.65-3.05-1.93-4.85-1.27-8.16-2.49-16.34-4.04-24.45-.61-3.19-1.14-6.58-3.86-9.17.19,5.66,1.62,11.16,2.22,16.75.61,5.64,2.09,11.2,2.01,17.5-1.62-.54-2.63-.92-3.67-1.21-3.78-1.06-5.82-3.43-6.85-7.33-1.6-6.04-3.79-11.93-5.74-17.88-2.81-8.54-6.67-16.61-11.1-24.4-.83-1.45-2.05-2.68-3.89-5.02-.12,3.59.99,5.52,1.75,7.52,4.82,12.76,9.65,25.52,14.42,38.3.31.83.16,1.84.33,4.25-5.48-5.8-9.73-10.55-11.33-17.09-.85-3.47-1.62-6.96-2.35-10.46-2.72-12.99-6.58-25.56-13.41-37.06-.57-.95-1.52-1.67-2.29-2.5,2.91,15.49,9.66,29.68,12.2,45.38-7.14-3.35-7.82-3.93-10.55-9.31-1.72-3.39-3.31-6.85-5.01-10.25-.55-1.11-1.26-2.14-2.4-4.05-1.56,5.08,1.71,8.51,1.48,13.15-4.22-2.53-8.17-4.13-10.8-8.15-2.55-3.91-5.78-7.38-8.8-10.96-.61-.72-1.5-1.87-3.03-.36,1.81,3.13,3.67,6.32,5.65,9.75-1.11.27-1.81.68-2.32.52-4.15-1.32-8.43-1.31-12.65-.99-3.89.3-6.92-.99-9.76-3.43-1.75-1.51-3.33-3.41-7.33-4.55,3.1,3.72,5.22,6.26,7.61,9.13-2.29.83-3.97,1.38-5.61,2.05-2.25.91-3.97-.01-5.34-1.63-1-1.18-1.66-2.65-2.53-3.95-1.34-2-2.6-4.09-5.27-5.48-1.51,5.77,3.23,9.27,4.22,14.14-10.66,5.84-19.58,13.59-28.11,21.86-1.08,1.04-2.62,1.84-4.08,2.18-1.1.26-2.41-.4-4.2-.76,1.42-2.15,2.43-3.83,3.59-5.39,4.63-6.23,7.53-13.23,8.77-20.84.93-5.73,1.24-11.55,2.02-17.3.45-3.3.77-6.75,2.03-9.77,7.84-18.71,21.8-31.33,40.12-39.45.35-.16.85.02,1.68.06,2.7,2.99,4.6,6.78,6.55,10.53,2.38,4.56,4.61,9.21,7,13.76.4.76,1.32,1.24,2.86,2.63-.3-2.09-.35-2.94-.54-3.76-2.17-9-7.07-16.75-11.86-24.58,5.08-2.06,8.6-.6,11.39,3.37,1.8,2.56,3.71,5.05,5.65,7.51,1.61,2.05,3.08,4.27,6.3,6.19-.28-1.95-.12-3.13-.61-3.88-2.31-3.55-4.81-6.99-7.23-10.47-.7-1.01-1.39-2.02-2.51-3.66,14.39-.89,28.02,1.53,41.15-1.09,2.43,2.22,2.57,4.8,3.39,7.06,1.82,5.05,3.61,10.1,5.49,15.13.35.94.79,2.18,2.72,1.27-1.03-4.02-2.23-8.06-3.08-12.16-.84-4.05-3.53-7.73-2.81-12.38,4.47-1.87,8.75-3.65,13.4-5.59.65,1.81,1.37,3.2,1.62,4.67,1.09,6.38,1.99,12.8,3.1,19.18.18,1.03,1.06,1.95,1.62,2.91.48-9.79-1.35-19.12-2.66-28.54,5.01-3.07,9.89-4.89,15.36-5.71.57,1.34,1.18,2.31,1.39,3.35,1.05,5.03,2.03,10.07,2.95,15.12.32,1.76.5,3.51,2.82,4.99.74-8.79-1.92-16.69-3.06-25.21,7.89-1.91,15.45-3.86,23.07-5.5,2.35-.51,4.91-.36,7.34-.14,4.64.41,6.48,1.94,7.31,6.37.74,3.94,1.33,7.95,1.44,11.94.19,6.93-.08,13.88-.08,20.82,0,1.11-.52,2.63,1.36,3.24,3.16-7.61,3-15.59,3.46-23.82,4.06,2.97,4.89,6.96,5.61,10.86.71,3.83-.22,7.88,1.92,11.68.26-3.88.52-7.75.79-11.83,5.5,2.82,7.95,6.73,7.22,12.61-.33,2.64-.07,5.37.03,8.05.03.77.45,1.52.85,2.79,2.8-2.19,1.8-4.81,2.06-7.05.3-2.53-.63-5.27,1.22-7.99,4.7,2.36,8.92,4.8,12.88,7.72,11.88,8.78,23.97,17.24,36.7,24.82,7.29,4.34,14.11,9.49,21.06,14.38,1.54,1.08,3.45,2.12,3.44,4.41-8.12,3.46-16.26,6.56-24.06,10.37Zm241.85,229.8c-3.7-2.27-7.08-4.35-10.52-6.46,2.33-7.31,3.85-14.24,3.98-21.48.13-7.18-1.07-14.16-2.5-20.97,3.08-3.14,7.81-3.53,9.57-8.03-3.68,1.34-7.36,2.68-11.37,4.14-2-2.87-3.87-5.56-5.79-8.31,3.89-2.81,8.87-2.47,13.64-6.41-6.56.2-10.99,3.33-16.01,3.73-1.83-1.62-4.28-2.51-4.93-5.28,3.68-2.92,9.02-2.91,12.21-8-2.19.34-3.49.39-4.68.77-3.2,1.02-6.31,2.32-9.53,3.23-1.64.46-3.66.86-5.14.3-2.17-.82-4.52-1.81-6.14-4.1,2.63-2.39,5.14-4.56,7.52-6.87,4.61-4.49,4.58-4.52,5.66-8.25-4.28,3.57-7.99,6.75-11.78,9.82-5.16,4.19-7.9,3.96-13.09-.98q13.99-14.83,15.01-19.51c-7.13,6.07-12.31,13.49-19.75,18.52-.43-.94-.69-1.51-.96-2.08-5.81,1.59-6.25,1.57-10.9-.69,1.54-1.98,2.98-3.91,4.5-5.78,4.51-5.55,9.07-11.06,13.54-16.64.57-.71,1.66-1.65.24-2.8-2.38,1.05-3.53,3.35-5.11,5.17-4.55,5.23-9,10.55-13.48,15.84-1.78,2.1-3.88,3.79-6.6,4.38-4.12.9-8.25.8-13.32-.02,4.11-4.32,7.69-7.9,11.07-11.68,5.61-6.27,7.08-8.87,7.66-13.3-1.93,2.02-3.49,3.59-4.97,5.22-4.67,5.13-9.15,10.44-14,15.38-4.42,4.5-6.3,4.46-11.96.98,6.53-7.62,13.28-15.08,19.56-22.92,9.18-11.46,14.55-20.91,15.6-26.81-1.43,1.59-2.51,2.61-3.38,3.79-10.61,14.43-21.31,28.78-33.63,41.83-1.66,1.76-3.46,3.78-5.61,4.59-4.48,1.69-7.59,4.56-9.94,8.55-.65,1.11-1.57,2.07-2.64,3.46-.94-.99-1.62-1.7-2-2.1,7.54-9.19,15.13-17.73,21.9-26.89,6.64-8.98,12.75-18.39,18.56-27.94,7.5-12.33,12.48-25.16,12.89-31.23-2.18.38-2.44,2.38-3.23,3.83-4.39,8.05-8.59,16.21-13.07,24.22-10.52,18.83-23.05,36.24-37.24,52.47-.97,1.11-2.3,1.91-3.77,3.11-1.65-1.59-3.03-2.93-4.41-4.27,13.69-13.78,14.99-15.41,16.72-21.36-7.78,4.95-12.09,12.97-19.67,18.01-1.54-2.13-2.94-4.06-4.54-6.28,11.49-11.51,21.92-23.46,30.98-36.52,11.9-17.15,20.61-34.34,21.69-42.8-2.63.82-3.02,3.22-4.01,5.06-12.73,23.76-27.34,46.23-45.49,66.26-1.48,1.63-3.13,3.1-4.89,4.82-2.64-2.29-4.37-4.78-6.09-7.51,5.1-5.72,11.45-10.13,14.37-17.39-6.56,3.64-10.91,9.94-17.04,14.34-3.1-3.43-6.38-6.14-8.06-10.3,13.09-11.37,23.39-24.77,33.23-38.55-.39-.39-.79-.77-1.18-1.16-.92.83-1.92,1.59-2.74,2.51-8.03,9.02-16.03,18.08-24.04,27.12-2.5,2.82-5.19,5.39-8.8,7.45-2.22-2.97-4.2-5.61-6.46-8.64,2.56-2.7,4.81-5.13,7.13-7.49q4.85-4.94,5.7-8.79c-5.29,3.92-8.87,9.22-14.42,13.15-2.65-3.84-5.01-7.27-7.16-10.4.22-.77.22-1.04.35-1.18,1.39-1.45,2.73-2.96,4.2-4.31,9.51-8.7,16.56-19.36,23.78-29.87.62-.9,2.08-1.99.08-3.49-.89.95-1.81,1.87-2.65,2.86-7.39,8.69-14.74,17.41-22.14,26.1-1.88,2.21-3.91,4.25-7.06,5.21-2.28-1.86-4.5-3.66-7.01-5.71,1.41-2.09,2.62-3.91,3.86-5.71,3.05-4.42,6.15-8.81,9.16-13.26.37-.55.35-1.37.51-2.06-6.73,5.29-10.84,12.57-16.67,18.49-2.99-1.59-5.66-3-8.29-4.4,5.11-7.28,10.01-14.21,14.83-21.19.51-.74.58-1.8.85-2.71-1.66.6-2.59,1.52-3.39,2.55-3.87,4.93-7.92,9.73-11.5,14.87-3.58,5.14-8.37,6.84-15.01,6.62,1.19-1.93,2.08-3.36,2.98-4.8,3.43-5.5,6.89-10.98,10.24-16.53.45-.75.37-1.82.53-2.75-2.4,1.51-3.82,3.46-5.21,5.43-4.13,5.85-8.19,11.75-12.38,17.56-3.26,4.53-8.13,6.11-14.01,7.68,4.09-7.28,7.7-13.7,11.32-20.12,3.56-6.32,7.42-12.5,9.28-19.67-1.17.7-2.05,1.58-2.65,2.62-6.78,11.59-13.53,23.19-20.25,34.82-2.24,3.88-4.45,7.71-8.28,10.4-1.79,1.25-3.28,3.08-4.54,4.9-7.01,10.13-13.86,20.37-18.53,31.85-2.55,6.26-7.11,10.75-12.25,14.81-.42.33-1.11.32-2.2.61,4.2-6.91,8.27-13.25,11.99-19.8,3.75-6.61,7.41-13.3,10.65-20.18,3.24-6.87,6.05-13.96,8.79-21.05,2.7-6.98,5.44-13.98,6.97-21.84-3.15,1.2-3.18,3.76-3.96,5.66-7.2,17.61-14.58,35.13-23.46,51.98-7.01,13.3-14.69,26.14-25.13,37.12-2.83,2.98-4.14,3.7-9,4.17,18.97-22.78,40.11-65.59,41.96-84.99-2.22-.05-2.14,1.92-2.7,3.18-4.28,9.6-8.63,19.18-12.68,28.88-5.11,12.22-11.41,23.8-18.13,35.18-3.77,6.38-8.22,12.26-13.34,17.63-3.5,3.68-7.81,5.26-13.59,5.82,7.19-7.45,14.06-14.02,18.22-22.8-.99.05-1.82.31-2.33.86-3.2,3.44-6.29,6.97-9.47,10.43-4.39,4.78-8.77,9.56-14.19,13.26-3.2,2.18-5.39,2.84-10.5,2.91,2.03-2.08,3.84-4.04,5.76-5.89,8.27-7.9,15.76-16.5,22.86-25.45,7.12-8.97,13.32-18.54,18.22-28.91.45-.96,1.79-2.2-.29-3.43-3.5,5.26-6.86,10.51-10.43,15.61-8.74,12.48-18.18,24.42-28.5,35.63-6.21,6.75-12.67,13.28-20.05,18.81-3.07,2.3-6.36,3.48-10.98,3.69,2.12-2.22,3.59-3.87,5.17-5.42,13.82-13.48,26.4-28.04,37.21-44.02,5.38-7.95,9.98-16.44,14.8-24.76.8-1.39,2.25-2.98.55-5.26-1.16,1.49-2.3,2.8-3.27,4.22-6.56,9.61-12.97,19.33-19.66,28.86-10.82,15.42-23.08,29.67-36.32,43.06-5.56,5.62-11.6,10.74-20.45,14.52,3.98-4.14,7.05-7.04,9.79-10.23,17.86-20.79,33.31-43.26,46.02-67.56,3.84-7.34,7.11-14.95,9.39-22.95.67-2.34,1.38-4.61.52-8.21-1.32,2.08-2.23,3.24-2.85,4.53-3.58,7.46-7.03,14.99-10.65,22.43-10.43,21.42-23.4,41.26-37.87,60.13-4.63,6.03-9.7,11.72-14.74,17.42-1.83,2.07-3.58,4.5-7.46,5.32.57-1.38.74-2.2,1.19-2.83,2.55-3.67,4.97-7.46,7.82-10.89,3.77-4.54,6.72-9.48,8.88-14.94,1.81-4.58,3.66-9.14,5.45-13.72,1.7-4.33,2.59-9.08,6.62-12.17.48-.37.61-1.17.93-1.75,1.28-2.34,2.44-4.77,3.89-6.99,5.15-7.87,10.51-15.59,15.6-23.5,17.4-27.06,39.26-49.88,65.31-68.7,22.58-16.31,47.1-28.28,74.69-33.47,13.19-2.48,25.84-1.31,37.81,5.06,6.91,3.68,13.81,7.39,20.71,11.1,4.39,2.36,9.08,4.11,14,4.38,5.11.28,10.3.03,15.39-.54,6.44-.73,12.8-2.06,19.21-3.05,13.56-2.08,25.26,1.36,34.67,11.69,4.37,4.8,8.9,9.45,13.27,14.25,3.8,4.18,6.8,8.9,8.53,14.32,1.5,4.68,2.68,9.47,4.31,14.1,1.92,5.48,3.62,11.13,6.38,16.19,6.53,11.97,11.98,24.55,19.9,35.76,1.15,1.63,2.06,3.47,2.88,5.3,4.58,10.19,9.47,20.26,10.12,31.75.45,8.01,1.59,15.98,2.04,23.99.21,3.75-.48,7.55-.76,11.33-.08,1.11-.14,2.23-.24,3.34-.52,5.56-.83,11.14-1.63,16.66-1.07,7.33-3.77,14.06-8.64,20.07Zm24.33,150.48c-6.1,8.05-11.78,16.34-16.02,25.55-4.02,8.74-8.25,17.39-11.94,26.27-5.76,13.82-11.24,27.76-16.65,41.72-5.02,12.93-9.87,25.92-14.64,38.94-2.09,5.7-5.71,10.14-10.56,13.55-4.94,3.48-10.03,6.75-15.17,9.91-9.17,5.64-19.4,7.95-29.94,9.06-5.18.55-10.3.22-14.93-2.66-.47-.29-1.21-.13-2.37-.21.19,1.29.04,2.5.55,3.26,1.23,1.84,2.74,3.51,4.19,5.2,5.55,6.46,3.87,14.53-3.73,18.48-4.53,2.35-8.94,2.41-13.52-.13-.39-3.87-.58-7.88-1.25-11.81-.72-4.17-1.89-8.26-2.88-12.42,3.19-10.32,10.71-17.27,18.85-23.73,1.4-1.11,2.8-2.35,4.41-3.01,1.44-.59,3.18-.48,4.65-.66-.17-1.34-.78-2.66-.36-3.39,2.62-4.52,5.88-8.51,11-10.35,12.35-4.46,22.25-12.38,30.8-22.06,10.8-12.23,16.26-26.6,16.02-42.98-.06-4-.65-8-1.03-12-.36-3.77-.82-7.54-1.12-11.32-.14-1.82-.03-3.66-.02-6.41,4.77,5.86,6.43,12.69,12.55,17.87-.4-3.67-1.84-5.67-2.86-7.78-1.07-2.21-2.26-4.37-3.44-6.53-1.18-2.16-2.42-4.29-3.63-6.43-1.21-2.14-2.55-4.23-3.6-6.44-.92-1.94-2.69-3.63-2.16-7.33,3.32,5.78,6.1,10.6,8.86,15.43,1.44,2.52,2.8,5.09,4.32,7.57.35.57,1.2.83,1.82,1.23.22-.21.44-.42.66-.63-5.03-10.06-10.06-20.12-15.09-30.18,5.94,6.4,11.26,13.18,16.59,19.95.11.14.44.2.63.16.18-.04.32-.27.99-.9-7.24-12.81-17.22-23.99-24.54-36.96,2.31,1.96,4.32,4.19,6.34,6.39,2.12,2.31,4.17,4.68,6.43,6.85,2.14,2.06,3.89,4.66,8.22,6.69-1.32-2.24-1.71-3.19-2.35-3.94-2.9-3.41-5.85-6.77-8.8-10.12-3.55-4.03-7.18-7.98-10.62-12.1-1.04-1.24-1.56-2.92-2.32-4.4,2.34,1.09,3.88,2.69,5.54,4.16,4.36,3.85,8.74,7.67,13.18,11.43.66.56,1.69.68,2.55,1.01-.43-1.75-1.19-2.85-2.14-3.75-4.89-4.59-9.78-9.19-14.77-13.68-3.51-3.15-6.74-6.36-6.94-12.37,5.65,3.95,10.64,7.67,15.85,11.01,5.13,3.29,9.71,7.58,15.89,9.15-.61-1.26-1.41-2.27-2.41-2.99-7.43-5.38-14.91-10.7-22.37-16.05-2.36-1.69-4.75-3.36-7.07-5.12-2.15-1.63-3.32-3.74-3.23-7.06,3.42,1.69,6.17,3.17,9.01,4.45,7.75,3.49,15.52,6.92,23.32,10.31.75.33,1.71.19,2.58.26-1.66-2.01-3.54-3.14-5.49-4.13-9.8-4.93-19.63-9.81-29.42-14.75-.99-.5-1.81-1.31-3.21-2.35,6.15.43,11.51.6,16.81,1.21,11.18,1.3,22.31,1.39,33.43-.43.8-.13,1.83-.36,1.48-1.71-1.65-1.61-3.76-1-5.69-1.03-9.85-.19-19.7-.23-29.55-.46-3.12-.07-6.22-.66-9.34-.86-2.86-.18-5.73-.24-8.52-1.02,3.78-.76,7.55-1.13,11.3-1.6,10.69-1.34,21.15-3.71,31.35-7.18,1.11-.38,2.09-1.15,3.13-1.74-2.05-.75-3.78-.64-5.45-.27-5.9,1.3-11.74,2.85-17.67,4-4.83.94-9.65,2.3-16.24,1.93,5.31-1.78,9.11-3.06,12.91-4.34,4.03-1.35,8.08-2.65,12.1-4.04,3.81-1.32,7.62-2.63,11.36-4.11,3.84-1.52,8.11-2.19,12.44-5.74-2.46,0-3.76-.28-4.89.04-8.38,2.4-16.77,4.8-25.07,7.44-7.25,2.31-14.37,4.99-21.59,7.41-1.35.45-2.85.44-4.85.73,1.28-3.06,3.14-4.61,5.24-5.91,2.85-1.77,5.71-3.53,8.61-5.23,6.75-3.98,13.54-7.89,20.26-11.91,1.15-.69,2.05-1.81,3.07-2.73-2.16-.22-3.82.26-5.4.91-1.65.69-3.24,1.53-4.84,2.33-1.6.8-3.21,1.58-4.79,2.43-1.58.85-3.11,1.78-4.66,2.66-1.56.89-3.09,1.81-4.68,2.63-1.45.75-2.72,2.05-5.19,2.16,2.75-5.46,7.2-8.21,11.17-11.37,4.2-3.35,8.62-6.42,12.79-9.8,3.85-3.13,8.12-5.84,11.36-9.85-.64-.39-.88-.64-1-.59-8.86,3.69-15.84,10.32-23.99,15.3,3.44-5.48,6.34-11.27,11.28-15.6,2.69-2.36,5.47-4.62,8.09-7.04,1.56-1.44,3.4-2.76,4.28-5.47-3.8.33-5.18,3.73-8.29,5.14,6.46-11.21,12.66-21.96,19.12-33.16,3.13,2.18,6.44,4.06,9.24,6.52,6.38,5.6,13.13,10.95,18.61,17.36,10.69,12.53,16.92,27.35,18.9,43.75,1.25,10.29,3.63,20.23,7.54,29.82,1.36,3.33,2.01,6.79,2.26,10.42.56,7.95-2.05,14.96-5.58,21.81-3.82,7.41-9.01,13.88-14.01,20.48Zm-81.54,257.7c.15-6.91.63-13.35.33-19.76-.3-6.63-2.62-12.88-6-19.19,5.22.96,8.61,4.94,14.53,5.08-1.91-1.81-2.86-3.11-4.13-3.85-4.04-2.38-8.14-4.69-12.33-6.78-9.04-4.5-18.67-7.44-28.23-10.56-2.87-.94-5.69-1.88-8.4-5.46,8.47,2.35,15.81,4.22,23.04,6.43,7.35,2.24,14.03,6.4,21.72,7.98-.71-1.25-1.53-2.3-2.6-2.89-4.1-2.27-8.18-4.62-12.45-6.53-9.05-4.05-18.78-5.78-28.37-7.96-1.58-.36-3.11-.96-4.93-1.53,3.14-2.36,5.8-4.36,8.68-6.52,11.69,2.93,22.37,9.39,34.54,11.37-10.06-7.13-21.83-10.48-33.31-14.89.12-1.51.23-2.82.33-4.12.11-1.42.22-2.83.35-4.6,10.43,4.01,20.39,7.99,30.47,11.66,6.92,2.52,14,4.62,21.03,6.83.83.26,1.82.04,3.66.04-3.15-2.79-6.16-3.71-9.03-4.78-13.19-4.95-26.42-9.8-39.63-14.7-2.42-.9-4.8-1.9-8.12-3.22,1.61-.21,2.05-.31,2.49-.32,8.13-.08,16,1.74,23.78,3.78,8.87,2.32,17.62,5.09,26.44,7.6.86.24,1.87-.02,2.8-.04-10.09-7.11-21.84-9.22-34.39-12.74,3.38-1.15,5.52-1.73,7.53-2.59,3.89-1.67,7.67-1.66,11.75-.45,7.37,2.18,14.29,5.14,20.36,9.94,1.05.83,2.06,2.63,4.07.94-1-3.53-3.97-5.26-6.72-7.04-2.62-1.7-5.41-3.15-8.23-4.51-2.9-1.39-5.92-2.53-9.04-3.84,2.32-2.74,4.63-3.13,7.58-2.49,3.84.84,7.71,2.23,12.46,1.07-2.55-3.48-6.83-2.97-9.56-5.38,1.71-2.52,4.07-1.89,6.09-1.45,3.49.76,6.88,1.95,10.33,2.89,1.42.39,2.9.57,5.85,1.13-4.77-4.81-10.19-5.26-14.69-7.77,2.85-4.03,5.39-7.63,7.69-10.87,3.91-1.14,7.3,2.03,11.06-.21-2.16-3.19-6.2-2.77-8.86-5.19,1.1-3.78,1.89-7.64,4.03-10.75,3.45-.89,6.84,2.11,10.36-1.26-3.29-1.12-6.12-2.07-9.07-3.07.63-3.61,1.69-6.7,3.82-9.1,2.55-.86,5.26,1.08,7.72-1.85-2.35-.98-4.17-1.73-6.19-2.57.8-3.8,1.73-7.39,4.02-10.34,2.71.16,5.16.41,7.6.37.84-.01,1.67-.76,3.6-1.71-3.9-1.22-6.61-2.07-9.58-3,.59-3.13,1.53-5.96,4.08-8.22,2.25.23,4.46.65,6.66.6,1.01-.02,2-.95,4.05-2.02-3.92-1.14-6.65-1.93-9.7-2.82.65-4.31,2.05-8.13,4.23-11.44,4.42-.65,8.31,3.26,12.87.33-3.13-3.37-7.91-2.51-10.91-5.33.97-2.87,1.45-5.75,3.87-7.56,4.55.1,8.33,3.99,13.4,1.89-3.52-3.51-8.99-2.45-12.26-6.56.84-1.83,1.72-3.77,2.56-5.63,3.64-.37,7.14,1.82,10.14-1.13-1.11-2.27-3.39-2.04-5.07-2.9-.82-.42-1.36-1.38-2.1-2.19,4.03-3.68,10.18-1.44,13.4-5.92-2.81-2.17-6.37.26-9.14-1.99,1.24-3.14,4.05-4.26,6.41-5.78,2.26-1.45,4.72-2.57,7.04-3.92,2.41-1.4,5.36-2.05,7.62-5.22-6.21-.45-10.27,3.95-15.68,4.71,3.6-6.95,14.82-22.24,19.14-26.22.3.32.82.61.87.96.7,5.98,1.72,11.95,1.92,17.95.34,10.05-.16,20.08-1.13,30.13-1.15,11.88-3.05,23.49-7.66,34.54-8.53,20.43-16.98,40.9-25.79,61.21-6.52,15.02-12.08,30.31-15.8,46.26-1.42,6.12-2.26,12.26-2.26,18.58,0,6.77,1.16,13.34,2.32,19.94,1.12,6.35.45,8.04-5.19,10.66-6.56,3.04-12.4,7.06-17.92,11.7-2.71,2.27-5.89,4.03-9,5.76-4.69,2.61-9.49,5.02-14.27,7.46-.88.45-1.9.64-2.93.98Zm-196.91,16.16c2.52.63,3.59.77,4.56,1.15,4.58,1.79,9.1,3.74,13.71,5.46,10.58,3.95,21.33,6.65,32.73,4.02.61-.14,1.28-.02,2.27-.02.92,2.02,1.81,3.98,2.68,5.91-2.15,2.47-4.78,2.2-7.13,2.28-8.51.3-17.2.8-25.11-2.86-8.21-3.79-16.06-8.38-23.72-15.95Zm6.4-7.99c-6.61-2.4-11.61-6.51-15.1-12.62-3-5.24-6.27-10.33-9.3-15.56-9.06-15.67-15.13-32.3-16.85-50.47-.77-8.21-2.43-16.33-3.66-24.5-.8-5.29-2.17-10.49-1.66-15.95.84-9.11,4.34-16.8,11.32-22.83,1.81-1.57,3.65-2.54,6.37-1.01-.58,1.18-.98,2.45-1.74,3.43-.94,1.23-2.27,2.15-3.27,3.35-.72.86-2.63,1.14-1.72,3.09,6.09-.61,7.84-6,10.63-9.87.6.15.86.15,1.03.27,2.52,1.72,2.79,4.01,1.22,6.39-2.71,4.1-5.62,8.07-8.44,12.09-.61.88-1.59,1.68-.36,3.16,6.45-3.91,9.93-10.33,13.6-16.82,4.19,3.97,5.34,8.17,3.2,13.03-1.62,3.67-3.26,7.36-5.2,10.87-2.7,4.89-5.73,9.61-8.53,14.45-.48.83-.53,1.91-.78,2.87,9.38-8.65,15.04-19.35,19-31.38,5.94,5.92,7.22,12.4,5.03,19.89-1.71,5.84-4.03,11.36-7.09,16.6-1.3,2.23-2.89,4.39-3.09,7.2.68,0,.92.07,1.09-.01.39-.19.85-.38,1.09-.71,5.34-7.28,9.77-14.97,11.21-24.09.21-1.36.98-2.63,1.69-4.45,2.97,3.72,5.42,6.88,7.98,9.95,1.44,1.73,1.88,3.54.96,5.59-1.82,4.07-3.72,8.11-5.53,12.19-.38.85-.55,1.79-.81,2.69,5.6-3.63,7.38-9.38,9.86-15.5,1.67,1.91,3.02,3.62,4.53,5.16,2.13,2.17,2.52,4.79,1.76,7.47-1.65,5.8-3.05,11.72-6.31,16.91-3.57,5.68-7.24,11.31-10.79,17-.43.69-.41,1.68-.91,3.97,6.1-6.61,10.31-12.6,13.94-19.05,3.58-6.36,4.82-13.58,7.5-21.66,1.09,1.66,1.44,2.6,2.11,3.14,3.65,2.99,4.67,6.78,4.2,11.36-.5,4.95-1.86,9.62-3.54,14.27-1.04,2.87-2.8,5.55-1.84,9.31.8-1.03,1.66-2.02,2.37-3.11.85-1.31,1.62-2.68,2.33-4.08.61-1.19,1.14-2.43,1.59-3.7.45-1.26.79-2.56,1.11-3.86.38-1.52.61-3.08,1.07-4.56.35-1.12-.48-2.66,1.12-3.45,1.24,1.39,2.29,2.88,3.64,4.01,2.73,2.29,3.28,5.19,2.79,8.46-.23,1.54-.53,3.08-.84,4.61-1.34,6.64-4.3,12.68-7.06,18.79-.44.98-.43,2.17-.89,4.71,8.27-8.98,11.41-18.52,12.62-28.83.71.13,1.22.08,1.53.31,3.97,2.88,4.86,6.98,3.63,11.33-1.62,5.79-3.76,11.44-5.72,17.14-.91,2.65-2.61,5.09-2.55,8.54,3.06-1.55,4.09-4.07,5.3-6.38,1.24-2.38,2.4-4.82,3.33-7.33,1-2.72,1.77-5.53,2.5-8.34.63-2.45,1.06-4.95,1.62-7.6.79.55,1.44.78,1.45,1.04.1,1.94-1.18,4.24,1.71,5.36.44.17.77,1.12.82,1.73.3,3.5,1.55,6.79.59,10.56-1.48,5.82-2.07,11.86-2.95,17.82-.13.87.26,1.81.61,3.88,4.68-8.44,4.89-16.76,6.89-25.83,3.36,11.06.69,21.41,2.17,32.1,4.02-4.76,1.91-10.74,4.95-15.53,1.73,3.18,3.37,5.85,4.63,8.69.8,1.81,1.24,3.85,1.48,5.83.37,3.1.53,6.24.59,9.36.07,3.34.65,6.5,2.54,10.84,1.43-6.5.15-11.86,1.23-17.66,1.64,1.45,2.76,2.47,3.91,3.46,4.83,4.15,10.28,7.12,16.44,8.77,8.81,2.36,17.28,1.27,25.38-2.72.8-.4,1.65-1.75,1.58-2.58-.06-.81-1.28-1.53-2.26-2.58-2.93,2.65-6.25,3.63-9.87,3.91-14.91,1.14-26.12-5.02-33.71-17.6-5.66-9.38-9.33-19.68-12.8-31.3,1.66,1.33,2.56,1.85,3.21,2.59,6.64,7.64,12.4,15.86,16.3,25.27.94,2.27,1.86,4.55,2.94,6.76.31.63,1.11,1.02,2.35,2.11-.78-12.07-7.43-20.52-13.89-30.58,7.72,4.17,13.43,8.33,18.02,13.95,2.27,2.77,4.46,5.6,6.77,8.34.45.53,1.25.77,3.04,1.81-1.86-6.27-4.74-10.37-8.1-14.22-.59-.68-2.03-1.27-.49-3.06,2.2,1.41,4.54,2.69,6.62,4.3,2.11,1.64,3.91,3.68,5.93,5.44,1.87,1.62,3.17,4.14,6.84,4.68-1.1-3.6-3.11-5.73-4.91-7.85-1.94-2.29-4.33-4.2-6.65-6.39,4.16-2.17,4.24-2.27,6.34-.58,2.95,2.39,5.75,4.98,8.65,7.43.73.61,1.62,1.03,2.43,1.53-1.43-6.31-6.33-9.54-10.74-13.49,1.14-1.81,2.17-3.45,3.51-5.58,1.81,1.57,3.37,2.76,4.74,4.14,1.57,1.58,2.91,3.4,4.49,4.98,1.25,1.25,1.92,3.4,4.86,3.64-2.68-7.03-7.2-11.83-12.49-16.28.63-1.33,1.16-2.45,1.9-4.01,1.82,1.69,3.34,2.96,4.7,4.39,1.54,1.62,2.86,3.44,4.42,5.04,1.25,1.29,2.16,3.15,5.14,3.71-1.96-4.74-4.45-8.07-7.39-11.12-1.4-1.45-2.87-2.84-4.09-4.43-1.18-1.53-.63-2.64,2.31-4.84,1.55,1.79,3.18,3.57,4.7,5.44,1.56,1.9,3.15,3.8,4.5,5.85,1.47,2.24,2.65,4.66,4.03,6.97,1.14,1.92,1.42,4.4,3.56,6.3.54-5.99.82-6.17-1.34-9.52-2.77-4.31-5.91-8.39-9.13-12.38-1.94-2.41-4.33-4.46-6.59-6.75.68-2.1,1.28-3.95,1.91-5.89,5.73,1.64,10.97,3.59,15.15,7.51,5.63,5.27,12.5,7.79,19.87,9.05,14.02,2.39,20.75,13.05,21.44,24.64.54,9.01-.13,17.9-2.63,26.57-3.04,10.56-9.21,18.31-20.32,21.19-3.46.9-6.96,1.69-10.44,2.5-6.2,1.44-11.77,4.12-16.75,8.15-4.87,3.93-10.03,7.52-14.91,11.44-8.05,6.47-17.07,7.02-26.68,4.92-6.56-1.43-11.89-4.95-16.98-9.1-7.91-6.45-14.82-13.62-18.47-23.42-.62-1.66-1.5-3.26-2.46-4.76-1.89-2.96-3.74-3.76-6.77-1.91-4.78,2.92-9.89,2.91-14.95,2.22-4.84-.66-9.63-2.02-14.27-3.58-5.71-1.92-11.2-4.51-16.88-6.56Zm-178.7,65.15c-6.01-.4-11.98-1.48-17.97-2.18-12.07-1.41-22.92-5.79-32.61-13.12-4.28-3.24-8.61-6.44-13.05-9.46-8.06-5.48-14.18-12.82-20.57-20.59,1.92-2.37,3.75-4.58,5.53-6.82,3.47-4.38,6.95-8.76,10.34-13.2.59-.77,1.63-1.72.31-3.2-.98.83-2.06,1.57-2.91,2.51-3.88,4.33-7.65,8.76-11.55,13.07-1.3,1.44-2.43,3.28-5.09,3.39-1.01-1.25-2.26-2.52-3.18-4-2.71-4.37-5.35-8.79-7.9-13.26-2.3-4.04-2.1-4.28,1.43-7.13,5.39-4.35,10.69-8.82,15.96-13.3.71-.6,1.07-1.62,1.96-3.03-3.26.21-4.77,1.99-6.49,3.24-4.7,3.43-9.28,7.02-13.98,10.45-1,.73-2.3,1.05-3.65,1.65-.83-1.47-1.46-2.6-2.23-3.97,1.52-1.33,2.8-2.53,4.17-3.63,7.5-6.06,14.85-12.26,20.1-20.51.6-.94,2.12-1.93.36-3.62-9.22,7.63-16.4,17.59-26.8,24.4-2.31-3.3-4.44-6.36-6.87-9.83,3.25-2.17,6.21-4.09,9.11-6.1,2.76-1.91,5.55-3.79,8.15-5.9,2.78-2.25,5.46-4.64,7.98-7.18,2.4-2.42,5.24-4.53,6.43-8.03-2.05.91-3.72,2.22-5.41,3.5-8.02,6.08-16.05,12.15-24.07,18.22-2.59,1.96-5.15,3.2-8.64,1.77-1.72-.71-3.97-.3-5.96-.16-9.61.67-18.72-1.04-27.28-5.51-.99-.52-2.08-.84-3.06-1.37-.87-.46-1.65-1.08-2.77-1.84,7.54-3.69,14.61-6.96,21.51-10.58,7.04-3.69,13.62-8.1,18.67-14.54-1.18-.08-2.18.16-3.02.68-4.56,2.83-9.09,5.73-13.62,8.61-7.77,4.95-16.03,8.9-24.55,12.37-2.54,1.03-4.74,1.02-6.95-.54-1.46-1.03-3.14-1.85-4.35-3.12-3.23-3.38-5.28-7.15-3.51-12.12,1.05-2.94,1.76-6.01,2.44-9.07,1.92-8.53,1.6-16.75-2.63-24.75-4.5-8.5-8.5-17.25-12.76-25.88-2.97-6.02-6.24-11.91-8.93-18.05-1.87-4.26-3.74-8.76-4.31-13.31-1.72-13.8,1.34-26.8,8.92-38.44,7.41-11.38,16.9-20.85,28.57-27.94,5.93-3.6,11.95-7.06,17.94-10.56,14.89-8.7,29.77-17.43,42.88-28.75,8.17-7.05,15.6-14.79,20.59-24.54.52-1.02,1.2-1.96,1.65-2.69,2.15,8.16,4.16,16.17,6.37,24.11,1.98,7.12-.27,13.98-6.43,18.76-6.56-2.3-11.31-8.12-18.33-9.68,2.43,2.68,5.46,4.53,8.27,6.64,2.78,2.09,6.2,3.41,8.58,6.64-2.5,2.71-4.73,5.12-7.04,7.63-2.92-1.08-5.42-1.98-7.9-2.94-2.29-.9-4.51-2-6.84-2.77-2.35-.79-4.33-2.99-8.2-2.18,6.52,5.14,13.88,6.77,20.54,10.86-1.58,2.23-3.03,4.15-4.35,6.16-1.88,2.86-4.39,3.56-7.57,2.55-4.69-1.49-9.39-2.94-14.11-4.33-1.61-.47-3.28-.72-4.93-1.07,6,5.27,14.2,5.33,21.19,9.69-2.54,2.66-4.74,4.84-6.81,7.14-2.99,3.31-6.45,4.39-10.85,3.14-2.99-.85-6.15-1.14-9.26-1.54-.92-.12-2.29-.45-2.55,1.71,4.66,1.14,9.33,2.28,14.6,3.56-3.54,4.58-6.64,8.59-9.41,12.18-4.99,2.15-9.63-1.5-14.99.79,3.86,2.92,8.47,1.38,12.05,4.06-3.44,6.1-6.91,12.26-10.46,18.56-5.23.2-10.29.4-15.34.6,4.6,1.93,9.81.67,13.93,3.83.05.82.25,1.52.12,2.15-1.41,6.55-2.72,13.1-1.15,19.83.05.21.02.45.05.67.31,2.45-.69,4.14-2.58,5.77-3.22,2.76-6.14,5.87-9.13,8.9-.74.75-1.55,1.69-.13,3.05,1.02-.72,2.12-1.42,3.15-2.21,6.01-4.59,11.86-9.4,18.04-13.76,11.78-8.31,24.7-14.46,38.32-19.12,2.53-.87,5.15-1.56,7.78-2.01,1.46-.25,3.46-.35,4.49.43,3.6,2.73,7.18,5.57,10.45,9.15-6.93,2.96-13.39,5.48-19.65,8.45-6.14,2.92-12.77,4.87-18.26,9.22,2.97.17,5.54-1.04,8.15-2.12,9.71-4.04,19.4-8.13,29.14-12.09,3.98-1.62,4.03-1.49,7.97,2.87-1.42,1.03-2.76,2.14-4.23,3.04-6.68,4.09-13.42,8.08-20.08,12.21-.94.58-2.63.95-1.87,3.36,9.75-5.7,19.33-11.29,28.95-16.91,1.62.99,2.98,1.73,4.24,2.62.68.48,1.2,1.21,1.92,1.96-2.01,3.35-4.93,5.49-7.81,7.48-7.54,5.21-15.2,10.27-22.96,15.15-7.77,4.89-15.73,9.45-23.56,14.25-1.76,1.08-3.97,1.87-4.98,5.19,2.1-.92,3.49-1.39,4.74-2.1,6.6-3.79,13.13-7.7,19.75-11.45,13.63-7.71,27.41-15.17,39.35-26.24,1.99,1.9,4.93,2.11,6.64,4.91-2.21,2.81-5.17,4.81-7.91,6.98-12.32,9.76-25.78,17.78-39.34,25.64-1.85,1.07-4.01,1.78-5.3,4.02,6.31-1.03,17.13-6.24,29.73-15.01,9.14-6.37,17.87-13.33,27-20.19,7.11,2.98,14.45,6.06,22.46,9.42-4.04,2.22-7.57,4.05-10.99,6.06-11.18,6.59-22.33,13.23-33.45,19.92-.94.56-2.46,1.04-1.92,3.19,1.43-.62,2.68-1.03,3.8-1.66,7.2-4.1,14.34-8.28,21.54-12.37,7.01-3.97,14.19-7.66,21.06-11.86,5.58-3.41,10.51-1.68,16.38.71-1.89,1.29-3.11,2.22-4.42,3-4.23,2.51-8.57,4.86-12.74,7.47-11.46,7.2-21.73,15.75-29.76,26.78-.72,1-1.95,1.96-.86,3.63.57-.26,1.25-.38,1.66-.79,5.27-5.15,10.37-10.47,15.77-15.48,9.93-9.2,21.72-15.71,33.35-22.43,1.78-1.03,3.54-1.27,5.56-.4-.48.75-.62,1.24-.95,1.45-13.71,8.97-26.39,19.25-38.51,30.23-7.66,6.93-14.39,14.65-19.51,23.84,1.98,1.29,2.55-.32,3.32-1.13,6.11-6.54,11.9-13.41,18.34-19.59,11.15-10.7,23.22-20.31,35.81-29.31,4.62-3.31,8.97-5.68,14.78-3.81,1.66.53,3.56.3,5.33.54.92.12,2.29-.54,2.62,1.52-13.31,8.6-25.02,19.28-36.04,30.77-7.33,7.64-13.64,16-18.32,25.54-.44.89-.68,1.89-1.15,3.22,1.06-.31,1.61-.3,1.81-.56,1.68-2.09,3.39-4.17,4.92-6.37,13.85-19.85,30.78-36.59,50.62-50.43,5.93-4.14,10.49-5.16,18.38-3.71-6.05,5.4-12.2,10.58-18.01,16.13-9.54,9.1-19.75,17.53-28.27,27.69-4.31,5.14-9.01,9.97-13.16,15.23-5.7,7.22-10.62,14.97-13.71,23.74-.33.93-.36,1.96-.52,2.94,2.52-2.01,4.06-4.4,5.51-6.85,6.74-11.42,14.75-21.9,23.61-31.73,13.66-15.15,28.81-28.78,43.71-42.65.76-.7,1.49-2.34,3.29-1.36-.61,2.89-1.02,5.78-1.89,8.52-.45,1.43-1.67,2.62-2.6,3.88-8.19,11.2-16.63,22.22-24.52,33.62-12.62,18.22-24.98,36.63-34.74,56.61-.47.97-.62,2.09-.92,3.14,4.27-3.45,6.75-7.92,9.41-12.26,6.77-11.07,13.2-22.37,20.32-33.22,9.33-14.22,19.17-28.1,28.85-42.09,1.08-1.56,2.53-2.87,4.44-5,.81,5.93.63,10.41-1.84,15.07-13.69,25.75-22.7,52.95-24.3,82.3-.06,1.16.23,2.25,1.84,1.87.25-.39.63-.73.71-1.13,1.96-9.18,3.8-18.39,5.85-27.54,3.88-17.31,9.39-34.06,17.44-49.91.55-1.09.83-2.62,2.6-2.52,2.87,8.1,2.96,8.13.47,15.48-5.4,15.88-7.55,32.17-6.27,48.9.09,1.17.6,2.31,1.26,4.75.92-1.95,1.64-2.72,1.52-3.34-.83-4.23-.26-8.4.16-12.6.64-6.44.77-12.96,1.77-19.34,1.05-6.76,2.55-13.49,5.38-20.07,2.69,2.98,3.53,5.84,2.26,9.5-1.02,2.92-1.51,6.08-1.83,9.18-.66,6.44-.89,12.92-1.61,19.35-.75,6.74.4,13.38.62,20.07.09,2.5,1.09,4.97,1.77,7.88,2.28-2.98,2.41-5.86,2.41-8.76,0-6.49.15-12.99-.03-19.48-.23-8.09.7-16.07,1.82-24.05.1-.74.8-1.39,1.37-2.35,3.83,2.83,3.94,6.75,4.25,10.46.3,3.56.01,7.17.28,10.74.63,8.29,2.18,16.4,5.56,24.05.66,1.5,1.79,2.8,2.7,4.19.42-.15.85-.29,1.27-.44-3.77-13.16-6.61-26.46-6.95-40.45,5.82,4.08,9.66,8.95,11,15.76.64,3.26,1.91,6.45,3.32,9.48,2.26,4.85,4.84,9.57,7.4,14.28.41.76,1.14,2.03,2.78.83-3.39-8.83-8.35-17.11-10.66-27.78,4.81,3.3,8.54,6.01,12.42,8.49,2.8,1.79,4.49,4.02,5.19,7.38.51,2.45.75,5.34,3.24,7.08,2.23-3-.54-6.18.51-9.05,5.12.76,9.95,1.8,14.83,2.13,9.99.68,18.3,5.2,26.28,10.2-.15,6.77-1.72,9.1-7.44,9.23-5.9.14-10.89,2.1-15.64,5.27-.71.48-1.59.71-2.27,1.01-2.98-1.53-3.41-5.54-7.01-6.36-1.53,3.57,2.02,6.38,1.21,10.03-2.81,1.87-5.75,3.82-8.94,5.93-1.48-2.27-2.77-4.23-4.39-6.72-1.88,4.18,1.36,7.01.97,10.56-4.65,5.21-10.09,9.58-17.56,11.44-4.86-8.13-4.68-17.6-8.37-25.81-.89,9.62,1.06,18.72,5.04,27.53-2.38,2.46-5.23,2.61-8.33,2.94-1.75-2.82-2.21-5.95-3.23-8.86-.23-.65-1.02-1.11-2.34-2.47-.34,4.99,1.73,8.95.04,13.03-1.36.34-2.79.69-3.94.98-2.22-1.89-1.19-5.33-4.52-6.22-.1,1.58-.44,3.13-.25,4.61.53,4.16-1.48,6.18-5.78,7.25-.85-3.86-1.66-7.49-2.46-11.13-.38.05-.75.1-1.13.14v12.58c-.9.86-1.18,1.21-1.54,1.46-.55.38-1.12.75-1.73,1.03-14.74,6.9-30.32,9.16-46.42,8.08Z"/><path class="cls-1" d="m383.13,495.09c.02-.69.5-1.36,1.01-2.58.74,1.07,1.42,1.65,1.31,2-.2.69-.83,1.26-1.28,1.88-.37-.43-1.06-.87-1.05-1.29Z"/></g></svg>